<?xml version="1.0" encoding="UTF-8" standalone="no"?>
<!DOCTYPE svg PUBLIC "-//W3C//DTD SVG 1.0//EN"
 "http://www.w3.org/TR/2001/REC-SVG-20010904/DTD/svg10.dtd" [
 <!ATTLIST svg xmlns:xlink CDATA #FIXED "http://www.w3.org/1999/xlink">
]>
<!-- Generated by dot version 1.9 (Fri Jan 31 11:51:16 EST 2003)
     For user: Bill Gates   Title: g    Pages: 1 -->
<svg width="270px" height="404px"
 xmlns="http://www.w3.org/2000/svg" xmlns:xlink="http://www.w3.org/1999/xlink">
<g id="graph0" class="graph" style="font-family:Times-Roman;font-size:18.67;">
<title>g</title>
<g id="graph2" class="cluster"><title>cluster_option</title>
<polygon style="fill:#f4f4f4;stroke:black;" points="10,221 120,221 120,9 10,9 10,221"/>
<text text-anchor="middle" x="85" y="26" style="font-family:Arial;font-size:16.00;fill:#005a9c;">option testOption</text>
</g>
<g id="graph7" class="cluster"><title>cluster_option_tree</title>
<polygon style="fill:none;stroke:#ffffff;" points="25,390 257,390 257,321 25,321 25,390"/>
</g>
<g id="node4" class="node"><title>state_test_state_1</title>
<a xlink:href="option.testOption.html#state_test_state_1">
<ellipse cx="53" cy="75" rx="32" ry="32" style="fill:#ffffff;stroke:black;"/>
<polyline style="fill:none;stroke:black;" points="73,51 33,51 "/>
<polyline style="fill:none;stroke:black;" points="73,99 33,99 "/>
<text text-anchor="middle" x="53" y="66" style="font-family:Arial;font-size:12.00;fill:#005a9c;">test</text>
<text text-anchor="middle" x="53" y="79" style="font-family:Arial;font-size:12.00;fill:#005a9c;">state</text>
<text text-anchor="middle" x="53" y="93" style="font-family:Arial;font-size:12.00;fill:#005a9c;">1</text>
</a></g>
<g id="edge7" class="edge"><title>state_test_state_1-&gt;state_test_state_1</title>
<path style="fill:none;stroke:black;" d="M77,97C96,103 114,97 114,75 114,58 102,50 88,51"/>
<polygon style="fill:black;stroke:black;" points="90,54 77,54 89,47 90,54"/>
</g>
<g id="node7" class="node"><title>state_test_state_2</title>
<a xlink:href="option.testOption.html#state_test_state_2">
<ellipse cx="53" cy="178" rx="32" ry="32" style="fill:#ffffff;stroke:black;"/>
<text text-anchor="middle" x="53" y="169" style="font-family:Arial;font-size:12.00;fill:#005a9c;">test</text>
<text text-anchor="middle" x="53" y="182" style="font-family:Arial;font-size:12.00;fill:#005a9c;">state</text>
<text text-anchor="middle" x="53" y="195" style="font-family:Arial;font-size:12.00;fill:#005a9c;">2</text>
</a></g>
<g id="edge9" class="edge"><title>state_test_state_1-&gt;state_test_state_2</title>
<path style="fill:none;stroke:black;" d="M42,106C41,115 41,125 41,134"/>
<polygon style="fill:black;stroke:black;" points="44,134 42,147 38,134 44,134"/>
</g>
<g id="node14" class="node"><title>basic_behavior_test</title>
<ellipse cx="141" cy="355" rx="105" ry="24" style="fill:none;stroke:black;"/>
<text text-anchor="middle" x="141" y="362">basic_behavior_test</text>
</g>
<g id="edge16" class="edge"><title>state_test_state_1-&gt;basic_behavior_test</title>
<path style="fill:none;stroke:#808080;stroke-dasharray:5,2;" d="M80,94C94,107 114,125 124,146 149,202 148,277 145,321"/>
<polygon style="fill:#808080;stroke:#808080;" points="148,321 144,331 142,321 148,321"/>
</g>
<g id="edge13" class="edge"><title>state_test_state_2-&gt;state_test_state_1</title>
<path style="fill:none;stroke:black;" d="M65,118C65,127 65,138 64,147"/>
<polygon style="fill:black;stroke:black;" points="62,119 64,106 69,119 62,119"/>
</g>
<g id="edge11" class="edge"><title>state_test_state_2-&gt;state_test_state_2</title>
<path style="fill:none;stroke:black;" d="M77,199C96,206 114,199 114,178 114,161 102,153 88,154"/>
<polygon style="fill:black;stroke:black;" points="90,157 77,157 89,150 90,157"/>
</g>
<g id="edge18" class="edge"><title>state_test_state_2-&gt;basic_behavior_test</title>
<path style="fill:none;stroke:#808080;stroke-dasharray:5,2;" d="M68,207C82,238 108,287 125,322"/>
<polygon style="fill:#808080;stroke:#808080;" points="128,321 129,331 122,322 128,321"/>
</g>
</g></svg>
