<?xml version="1.0" encoding="UTF-8" standalone="no"?>
<!DOCTYPE svg PUBLIC "-//W3C//DTD SVG 1.0//EN"
 "http://www.w3.org/TR/2001/REC-SVG-20010904/DTD/svg10.dtd" [
 <!ATTLIST svg xmlns:xlink CDATA #FIXED "http://www.w3.org/1999/xlink">
]>
<!-- Generated by dot version 1.9 (Fri Jan 31 11:51:16 EST 2003)
     For user: Bill Gates   Title: g    Pages: 1 -->
<svg width="180px" height="143px"
 xmlns="http://www.w3.org/2000/svg" xmlns:xlink="http://www.w3.org/1999/xlink">
<g id="graph0" class="graph" style="font-family:Times-Roman;font-size:18.67;">
<title>g</title>
<g id="node2" class="node"><title>option_drive_circle</title>
<a xlink:href="option.drive_circle.html">
<polygon style="fill:#ffffff;stroke:black;" points="128,9 56,9 56,57 128,57 128,9"/>
<text text-anchor="middle" x="92" y="30" style="font-family:Arial;font-size:12.00;fill:#005a9c;">drive</text>
<text text-anchor="middle" x="92" y="44" style="font-family:Arial;font-size:12.00;fill:#005a9c;">circle</text>
</a></g>
<g id="node4" class="node"><title>basic_behavior_differential_drive</title>
<a xlink:href="basic-behaviors.my_basic_behaviors.html#differential_drive">
<ellipse cx="41" cy="105" rx="41" ry="24" style="fill:#ffffff;stroke:black;"/>
<text text-anchor="middle" x="41" y="102" style="font-family:Arial;font-size:12.00;fill:#005a9c;">differential</text>
<text text-anchor="middle" x="41" y="116" style="font-family:Arial;font-size:12.00;fill:#005a9c;">drive</text>
</a></g>
<g id="edge5" class="edge"><title>option_drive_circle-&gt;basic_behavior_differential_drive</title>
<path style="fill:none;stroke:#808080;" d="M74,57C70,62 66,68 62,73"/>
<polygon style="fill:#808080;stroke:#808080;" points="65,74 57,82 60,72 65,74"/>
</g>
<g id="node6" class="node"><title>basic_behavior_wait</title>
<a xlink:href="basic-behaviors.my_basic_behaviors.html#wait">
<ellipse cx="142" cy="105" rx="36" ry="24" style="fill:#ffffff;stroke:black;"/>
<text text-anchor="middle" x="142" y="109" style="font-family:Arial;font-size:12.00;fill:#005a9c;">wait</text>
</a></g>
<g id="edge7" class="edge"><title>option_drive_circle-&gt;basic_behavior_wait</title>
<path style="fill:none;stroke:#808080;" d="M109,57C113,62 117,69 121,74"/>
<polygon style="fill:#808080;stroke:#808080;" points="124,73 128,84 120,77 124,73"/>
</g>
</g></svg>
