<?xml version="1.0" encoding="UTF-8" standalone="no"?>
<!DOCTYPE svg PUBLIC "-//W3C//DTD SVG 1.0//EN"
 "http://www.w3.org/TR/2001/REC-SVG-20010904/DTD/svg10.dtd" [
 <!ATTLIST svg xmlns:xlink CDATA #FIXED "http://www.w3.org/1999/xlink">
]>
<!-- Generated by dot version 1.9 (Fri Jan 31 11:51:16 EST 2003)
     For user: Bill Gates   Title: g    Pages: 1 -->
<svg width="180px" height="215px"
 xmlns="http://www.w3.org/2000/svg" xmlns:xlink="http://www.w3.org/1999/xlink">
<g id="graph0" class="graph" style="font-family:Times-Roman;font-size:18.67;">
<title>g</title>
<g id="node2" class="node"><title>option_choose_role</title>
<a xlink:href="option.choose_role.html">
<polygon style="fill:#ffffff;stroke:black;" points="108,9 36,9 36,57 108,57 108,9"/>
<text text-anchor="middle" x="72" y="30" style="font-family:Arial;font-size:12.00;fill:#005a9c;">choose</text>
<text text-anchor="middle" x="72" y="44" style="font-family:Arial;font-size:12.00;fill:#005a9c;">role</text>
</a></g>
<g id="node6" class="node"><title>basic_behavior_wait</title>
<a xlink:href="basic-behaviors.my_basic_behaviors.html#wait">
<ellipse cx="36" cy="177" rx="36" ry="24" style="fill:#ffffff;stroke:black;"/>
<text text-anchor="middle" x="36" y="181" style="font-family:Arial;font-size:12.00;fill:#005a9c;">wait</text>
</a></g>
<g id="edge10" class="edge"><title>option_choose_role-&gt;basic_behavior_wait</title>
<path style="fill:none;stroke:#808080;" d="M65,57C60,81 50,117 45,144"/>
<polygon style="fill:#808080;stroke:#808080;" points="48,144 42,153 42,142 48,144"/>
</g>
<g id="node8" class="node"><title>option_drive_circle</title>
<a xlink:href="option.drive_circle.html">
<polygon style="fill:#ffffff;stroke:black;" points="145,81 73,81 73,129 145,129 145,81"/>
<text text-anchor="middle" x="109" y="102" style="font-family:Arial;font-size:12.00;fill:#005a9c;">drive</text>
<text text-anchor="middle" x="109" y="116" style="font-family:Arial;font-size:12.00;fill:#005a9c;">circle</text>
</a></g>
<g id="edge8" class="edge"><title>option_choose_role-&gt;option_drive_circle</title>
<path style="fill:none;stroke:#808080;" d="M84,57C86,62 89,66 92,72"/>
<polygon style="fill:#808080;stroke:#808080;" points="94,70 97,81 89,73 94,70"/>
</g>
<g id="node4" class="node"><title>basic_behavior_differential_drive</title>
<a xlink:href="basic-behaviors.my_basic_behaviors.html#differential_drive">
<ellipse cx="137" cy="177" rx="41" ry="24" style="fill:#ffffff;stroke:black;"/>
<text text-anchor="middle" x="137" y="174" style="font-family:Arial;font-size:12.00;fill:#005a9c;">differential</text>
<text text-anchor="middle" x="137" y="188" style="font-family:Arial;font-size:12.00;fill:#005a9c;">drive</text>
</a></g>
<g id="edge12" class="edge"><title>option_drive_circle-&gt;basic_behavior_differential_drive</title>
<path style="fill:none;stroke:#808080;" d="M118,129C120,134 122,138 124,144"/>
<polygon style="fill:#808080;stroke:#808080;" points="126,142 128,153 121,144 126,142"/>
</g>
<g id="edge14" class="edge"><title>option_drive_circle-&gt;basic_behavior_wait</title>
<path style="fill:none;stroke:#808080;" d="M84,129C77,136 70,142 64,149"/>
<polygon style="fill:#808080;stroke:#808080;" points="65,152 56,157 61,148 65,152"/>
</g>
</g></svg>
