<?xml version="1.0" encoding="UTF-8" standalone="no"?>
<!DOCTYPE svg PUBLIC "-//W3C//DTD SVG 1.0//EN"
 "http://www.w3.org/TR/2001/REC-SVG-20010904/DTD/svg10.dtd" [
 <!ATTLIST svg xmlns:xlink CDATA #FIXED "http://www.w3.org/1999/xlink">
]>
<!-- Generated by dot version 1.9 (Fri Jan 31 11:51:16 EST 2003)
     For user: Bill Gates   Title: g    Pages: 1 -->
<svg width="278px" height="380px"
 xmlns="http://www.w3.org/2000/svg" xmlns:xlink="http://www.w3.org/1999/xlink">
<g id="graph0" class="graph" style="font-family:Times-Roman;font-size:18.67;">
<title>g</title>
<g id="graph2" class="cluster"><title>cluster_option</title>
<polygon style="fill:#f4f4f4;stroke:black;" points="10,366 202,366 202,9 10,9 10,366"/>
<text text-anchor="middle" x="94" y="26" style="font-family:Arial;font-size:16.00;fill:#005a9c;">option choose_role</text>
</g>
<g id="graph3" class="cluster"><title>cluster_states</title>
<polygon style="fill:#f4f4f4;stroke:#f4f4f4;" points="21,355 192,355 192,254 21,254 21,355"/>
</g>
<g id="graph6" class="cluster"><title>cluster_decision_tree</title>
<polygon style="fill:#ffffff;stroke:black;" points="52,185 145,185 145,43 52,43 52,185"/>
<text text-anchor="middle" x="164" y="61" style="font-family:Arial;font-size:16.00;fill:#005a9c;">state walk_corridor_state</text>
</g>
<g id="node4" class="node"><title>state_walk_corridor_state</title>
<ellipse cx="70" cy="305" rx="38" ry="38" style="fill:none;stroke:black;stroke-dasharray:5,2;"/>
<text text-anchor="middle" x="70" y="295" style="font-family:Arial;font-size:12.00;fill:#005a9c;">walk</text>
<text text-anchor="middle" x="70" y="309" style="font-family:Arial;font-size:12.00;fill:#005a9c;">corridor</text>
<text text-anchor="middle" x="70" y="322" style="font-family:Arial;font-size:12.00;fill:#005a9c;">state</text>
</g>
<g id="node6" class="node"><title>state_get_role</title>
<a xlink:href="option.choose_role.html#state_get_role">
<ellipse cx="157" cy="305" rx="24" ry="24" style="fill:#ffffff;stroke:black;"/>
<polyline style="fill:none;stroke:black;" points="172,287 142,287 "/>
<polyline style="fill:none;stroke:black;" points="172,322 142,322 "/>
<text text-anchor="middle" x="157" y="302" style="font-family:Arial;font-size:12.00;fill:#005a9c;">get</text>
<text text-anchor="middle" x="157" y="315" style="font-family:Arial;font-size:12.00;fill:#005a9c;">role</text>
</a></g>
<g id="node9" class="node"><title>start</title>
<ellipse cx="98" cy="81" rx="2" ry="2" style="fill:black;stroke:black;"/>
</g>
<g id="node11" class="node"><title>_0</title>
<a xlink:href="option.choose_role.html#state_walk_corridor_state_pseudo-code_0">
<polygon style="fill:#ffffff;stroke:black;" points="134,126 62,126 62,174 134,174 134,126"/>
</a></g>
<g id="edge11" class="edge"><title>start-&gt;_0</title>
<path style="fill:none;stroke:black;" d="M98,83C98,89 98,99 98,111"/>
<polygon style="fill:black;stroke:black;" points="102,113 98,126 96,113 102,113"/>
</g>
<g id="edge9" class="edge"><title>_0-&gt;state_walk_corridor_state</title>
<path style="fill:none;stroke:black;" d="M94,174C90,195 85,226 80,253"/>
<polygon style="fill:black;stroke:black;" points="82,254 77,266 77,253 82,254"/>
<text text-anchor="middle" x="86" y="190" style="font-size:14.67;">1</text>
</g>
<g id="edge13" class="edge"><title>_0-&gt;state_get_role</title>
<path style="fill:none;stroke:black;" d="M108,174C117,199 133,242 145,271"/>
<polygon style="fill:black;stroke:black;" points="148,269 149,282 141,271 148,269"/>
<text text-anchor="middle" x="106" y="193" style="font-size:14.67;">0</text>
</g>
</g></svg>
