<?xml version="1.0" encoding="UTF-8" standalone="no"?>
<!DOCTYPE svg PUBLIC "-//W3C//DTD SVG 1.0//EN"
 "http://www.w3.org/TR/2001/REC-SVG-20010904/DTD/svg10.dtd" [
 <!ATTLIST svg xmlns:xlink CDATA #FIXED "http://www.w3.org/1999/xlink">
]>
<!-- Generated by dot version 1.9 (Fri Jan 31 11:51:16 EST 2003)
     For user: Bill Gates   Title: g    Pages: 1 -->
<svg width="279px" height="410px"
 xmlns="http://www.w3.org/2000/svg" xmlns:xlink="http://www.w3.org/1999/xlink">
<g id="graph0" class="graph" style="font-family:Times-Roman;font-size:18.67;">
<title>g</title>
<g id="graph2" class="cluster"><title>cluster_option</title>
<polygon style="fill:#f4f4f4;stroke:black;" points="10,396 266,396 266,9 10,9 10,396"/>
<text text-anchor="middle" x="98" y="27" style="font-family:Arial;font-size:16.00;fill:#005a9c;">option walk_corridor</text>
</g>
<g id="graph3" class="cluster"><title>cluster_states</title>
<polygon style="fill:#f4f4f4;stroke:#f4f4f4;" points="21,385 256,385 256,255 21,255 21,385"/>
</g>
<g id="graph6" class="cluster"><title>cluster_decision_tree</title>
<polygon style="fill:#ffffff;stroke:black;" points="62,185 156,185 156,44 62,44 62,185"/>
<text text-anchor="middle" x="154" y="61" style="font-family:Arial;font-size:16.00;fill:#005a9c;">state move_forward</text>
</g>
<g id="node4" class="node"><title>state_move_forward</title>
<ellipse cx="73" cy="320" rx="41" ry="41" style="fill:none;stroke:black;stroke-dasharray:5,2;"/>
<text text-anchor="middle" x="73" y="317" style="font-family:Arial;font-size:12.00;fill:#005a9c;">move</text>
<text text-anchor="middle" x="73" y="331" style="font-family:Arial;font-size:12.00;fill:#005a9c;">forward</text>
</g>
<g id="node6" class="node"><title>state_decide_movement</title>
<a xlink:href="option.walk_corridor.html#state_decide_movement">
<ellipse cx="192" cy="320" rx="53" ry="53" style="fill:#ffffff;stroke:black;"/>
<polyline style="fill:none;stroke:black;" points="226,280 157,280 "/>
<polyline style="fill:none;stroke:black;" points="226,360 157,360 "/>
<text text-anchor="middle" x="192" y="317" style="font-family:Arial;font-size:12.00;fill:#005a9c;">decide</text>
<text text-anchor="middle" x="192" y="331" style="font-family:Arial;font-size:12.00;fill:#005a9c;">movement</text>
</a></g>
<g id="node9" class="node"><title>start</title>
<ellipse cx="109" cy="81" rx="2" ry="2" style="fill:black;stroke:black;"/>
</g>
<g id="node11" class="node"><title>_0</title>
<a xlink:href="option.walk_corridor.html#state_move_forward_pseudo-code_0">
<polygon style="fill:#ffffff;stroke:black;" points="145,127 73,127 73,175 145,175 145,127"/>
</a></g>
<g id="edge11" class="edge"><title>start-&gt;_0</title>
<path style="fill:none;stroke:black;" d="M109,84C109,89 109,100 109,112"/>
<polygon style="fill:black;stroke:black;" points="113,113 109,127 106,113 113,113"/>
</g>
<g id="edge9" class="edge"><title>_0-&gt;state_move_forward</title>
<path style="fill:none;stroke:black;" d="M104,175C100,197 92,236 85,267"/>
<polygon style="fill:black;stroke:black;" points="89,267 82,279 82,265 89,267"/>
<text text-anchor="middle" x="96" y="191" style="font-size:14.67;">1</text>
</g>
<g id="edge13" class="edge"><title>_0-&gt;state_decide_movement</title>
<path style="fill:none;stroke:black;" d="M121,175C132,197 149,231 162,261"/>
<polygon style="fill:black;stroke:black;" points="165,259 168,272 158,261 165,259"/>
<text text-anchor="middle" x="121" y="193" style="font-size:14.67;">0</text>
</g>
</g></svg>
