<?xml version="1.0" encoding="UTF-8" standalone="no"?>
<!DOCTYPE svg PUBLIC "-//W3C//DTD SVG 1.0//EN"
 "http://www.w3.org/TR/2001/REC-SVG-20010904/DTD/svg10.dtd" [
 <!ATTLIST svg xmlns:xlink CDATA #FIXED "http://www.w3.org/1999/xlink">
]>
<!-- Generated by dot version 1.9 (Fri Jan 31 11:51:16 EST 2003)
     For user: Bill Gates   Title: g    Pages: 1 -->
<svg width="543px" height="682px"
 xmlns="http://www.w3.org/2000/svg" xmlns:xlink="http://www.w3.org/1999/xlink">
<g id="graph0" class="graph" style="font-family:Times-Roman;font-size:18.67;">
<title>g</title>
<g id="graph2" class="cluster"><title>cluster_option</title>
<polygon style="fill:#f4f4f4;stroke:black;" points="10,668 530,668 530,9 10,9 10,668"/>
<text text-anchor="middle" x="98" y="27" style="font-family:Arial;font-size:16.00;fill:#005a9c;">option walk_corridor</text>
</g>
<g id="graph3" class="cluster"><title>cluster_states</title>
<polygon style="fill:#f4f4f4;stroke:#f4f4f4;" points="21,657 520,657 520,527 21,527 21,657"/>
</g>
<g id="graph9" class="cluster"><title>cluster_decision_tree</title>
<polygon style="fill:#ffffff;stroke:black;" points="174,457 268,457 268,44 174,44 174,457"/>
<text text-anchor="middle" x="280" y="61" style="font-family:Arial;font-size:16.00;fill:#005a9c;">state decide_movement</text>
</g>
<g id="node4" class="node"><title>state_move_back</title>
<a xlink:href="option.walk_corridor.html#state_move_back">
<ellipse cx="477" cy="592" rx="32" ry="32" style="fill:#ffffff;stroke:black;"/>
<text text-anchor="middle" x="477" y="589" style="font-family:Arial;font-size:12.00;fill:#005a9c;">move</text>
<text text-anchor="middle" x="477" y="603" style="font-family:Arial;font-size:12.00;fill:#005a9c;">back</text>
</a></g>
<g id="node6" class="node"><title>state_move_forward</title>
<a xlink:href="option.walk_corridor.html#state_move_forward">
<ellipse cx="380" cy="592" rx="41" ry="41" style="fill:#ffffff;stroke:black;"/>
<text text-anchor="middle" x="380" y="589" style="font-family:Arial;font-size:12.00;fill:#005a9c;">move</text>
<text text-anchor="middle" x="380" y="603" style="font-family:Arial;font-size:12.00;fill:#005a9c;">forward</text>
</a></g>
<g id="node8" class="node"><title>state_move_right</title>
<a xlink:href="option.walk_corridor.html#state_move_right">
<ellipse cx="282" cy="592" rx="32" ry="32" style="fill:#ffffff;stroke:black;"/>
<text text-anchor="middle" x="282" y="589" style="font-family:Arial;font-size:12.00;fill:#005a9c;">move</text>
<text text-anchor="middle" x="282" y="603" style="font-family:Arial;font-size:12.00;fill:#005a9c;">right</text>
</a></g>
<g id="node10" class="node"><title>state_move_left</title>
<a xlink:href="option.walk_corridor.html#state_move_left">
<ellipse cx="64" cy="592" rx="32" ry="32" style="fill:#ffffff;stroke:black;"/>
<text text-anchor="middle" x="64" y="589" style="font-family:Arial;font-size:12.00;fill:#005a9c;">move</text>
<text text-anchor="middle" x="64" y="603" style="font-family:Arial;font-size:12.00;fill:#005a9c;">left</text>
</a></g>
<g id="node12" class="node"><title>state_decide_movement</title>
<ellipse cx="173" cy="592" rx="53" ry="53" style="fill:none;stroke:black;stroke-dasharray:5,2;"/>
<polyline style="fill:none;stroke:black;stroke-dasharray:5,2;" points="208,552 138,552 "/>
<polyline style="fill:none;stroke:black;stroke-dasharray:5,2;" points="208,632 138,632 "/>
<text text-anchor="middle" x="173" y="589" style="font-family:Arial;font-size:12.00;fill:#005a9c;">decide</text>
<text text-anchor="middle" x="173" y="603" style="font-family:Arial;font-size:12.00;fill:#005a9c;">movement</text>
</g>
<g id="node15" class="node"><title>start</title>
<ellipse cx="221" cy="81" rx="2" ry="2" style="fill:black;stroke:black;"/>
</g>
<g id="node17" class="node"><title>_0</title>
<a xlink:href="option.walk_corridor.html#state_decide_movement_pseudo-code_0">
<polygon style="fill:#ffffff;stroke:black;" points="257,127 185,127 185,175 257,175 257,127"/>
</a></g>
<g id="edge14" class="edge"><title>start-&gt;_0</title>
<path style="fill:none;stroke:black;" d="M221,84C221,89 221,100 221,112"/>
<polygon style="fill:black;stroke:black;" points="225,113 221,127 218,113 225,113"/>
</g>
<g id="edge12" class="edge"><title>_0-&gt;state_move_back</title>
<path style="fill:none;stroke:black;" d="M257,159C316,173 424,205 424,241 424,241 424,241 424,492 424,505 438,532 452,555"/>
<polygon style="fill:black;stroke:black;" points="454,552 458,565 449,556 454,552"/>
<text text-anchor="middle" x="268" y="172" style="font-size:14.67;">1</text>
</g>
<g id="node21" class="node"><title>_1_0</title>
<a xlink:href="option.walk_corridor.html#state_decide_movement_pseudo-code_1_0">
<polygon style="fill:#ffffff;stroke:black;" points="257,217 185,217 185,265 257,265 257,217"/>
</a></g>
<g id="edge19" class="edge"><title>_0-&gt;_1_0</title>
<path style="fill:none;stroke:black;" d="M221,175C221,184 221,195 221,204"/>
<polygon style="fill:black;stroke:black;" points="225,204 221,217 218,204 225,204"/>
<text text-anchor="middle" x="216" y="192" style="font-size:14.67;">0</text>
</g>
<g id="edge17" class="edge"><title>_1_0-&gt;state_move_forward</title>
<path style="fill:none;stroke:black;" d="M257,252C293,264 344,289 344,332 344,332 344,332 344,492 344,511 349,528 354,544"/>
<polygon style="fill:black;stroke:black;" points="357,543 360,556 352,545 357,543"/>
<text text-anchor="middle" x="266" y="267" style="font-size:14.67;">1</text>
</g>
<g id="node25" class="node"><title>_1_1_0</title>
<a xlink:href="option.walk_corridor.html#state_decide_movement_pseudo-code_1_1_0">
<polygon style="fill:#ffffff;stroke:black;" points="257,308 185,308 185,356 257,356 257,308"/>
</a></g>
<g id="edge24" class="edge"><title>_1_0-&gt;_1_1_0</title>
<path style="fill:none;stroke:black;" d="M221,265C221,275 221,285 221,295"/>
<polygon style="fill:black;stroke:black;" points="225,295 221,308 218,295 225,295"/>
<text text-anchor="middle" x="216" y="283" style="font-size:14.67;">0</text>
</g>
<g id="edge22" class="edge"><title>_1_1_0-&gt;state_move_right</title>
<path style="fill:none;stroke:black;" d="M242,356C253,368 262,384 269,399 286,448 288,507 286,547"/>
<polygon style="fill:black;stroke:black;" points="289,547 285,560 284,547 289,547"/>
<text text-anchor="middle" x="246" y="375" style="font-size:14.67;">1</text>
</g>
<g id="node29" class="node"><title>_1_1_1_0</title>
<a xlink:href="option.walk_corridor.html#state_decide_movement_pseudo-code_1_1_1_0">
<polygon style="fill:#ffffff;stroke:black;" points="257,399 185,399 185,447 257,447 257,399"/>
</a></g>
<g id="edge29" class="edge"><title>_1_1_0-&gt;_1_1_1_0</title>
<path style="fill:none;stroke:black;" d="M221,356C221,365 221,376 221,385"/>
<polygon style="fill:black;stroke:black;" points="225,385 221,399 218,385 225,385"/>
<text text-anchor="middle" x="216" y="373" style="font-size:14.67;">0</text>
</g>
<g id="edge27" class="edge"><title>_1_1_1_0-&gt;state_move_left</title>
<path style="fill:none;stroke:black;" d="M188,447C156,472 141,487 108,527 101,535 94,544 88,553"/>
<polygon style="fill:black;stroke:black;" points="90,555 81,564 85,551 90,555"/>
<text text-anchor="middle" x="174" y="455" style="font-size:14.67;">1</text>
</g>
<g id="edge31" class="edge"><title>_1_1_1_0-&gt;state_decide_movement</title>
<path style="fill:none;stroke:black;" d="M214,447C209,468 200,499 192,527"/>
<polygon style="fill:black;stroke:black;" points="194,528 188,540 188,527 194,528"/>
<text text-anchor="middle" x="206" y="463" style="font-size:14.67;">0</text>
</g>
</g></svg>
