<?xml version="1.0" encoding="UTF-8" standalone="no"?>
<!DOCTYPE svg PUBLIC "-//W3C//DTD SVG 1.0//EN"
 "http://www.w3.org/TR/2001/REC-SVG-20010904/DTD/svg10.dtd" [
 <!ATTLIST svg xmlns:xlink CDATA #FIXED "http://www.w3.org/1999/xlink">
]>
<!-- Generated by dot version 1.9 (Fri Jan 31 11:51:16 EST 2003)
     For user: Bill Gates   Title: g    Pages: 1 -->
<svg width="207px" height="370px"
 xmlns="http://www.w3.org/2000/svg" xmlns:xlink="http://www.w3.org/1999/xlink">
<g id="graph0" class="graph" style="font-family:Times-Roman;font-size:18.67;">
<title>g</title>
<g id="graph2" class="cluster"><title>cluster_option</title>
<polygon style="fill:#f4f4f4;stroke:black;" points="10,356 194,356 194,9 10,9 10,356"/>
<text text-anchor="middle" x="89" y="27" style="font-family:Arial;font-size:16.00;fill:#005a9c;">option drive_circle</text>
</g>
<g id="graph3" class="cluster"><title>cluster_states</title>
<polygon style="fill:#f4f4f4;stroke:#f4f4f4;" points="21,345 184,345 184,255 21,255 21,345"/>
</g>
<g id="graph6" class="cluster"><title>cluster_decision_tree</title>
<polygon style="fill:#ffffff;stroke:black;" points="45,185 138,185 138,44 45,44 45,185"/>
<text text-anchor="middle" x="90" y="61" style="font-family:Arial;font-size:16.00;fill:#005a9c;">state turn</text>
</g>
<g id="node4" class="node"><title>state_turn</title>
<ellipse cx="56" cy="300" rx="24" ry="24" style="fill:none;stroke:black;stroke-dasharray:5,2;"/>
<polyline style="fill:none;stroke:black;stroke-dasharray:5,2;" points="70,283 41,283 "/>
<polyline style="fill:none;stroke:black;stroke-dasharray:5,2;" points="70,317 41,317 "/>
<text text-anchor="middle" x="56" y="304" style="font-family:Arial;font-size:12.00;fill:#005a9c;">turn</text>
</g>
<g id="node6" class="node"><title>state_done</title>
<a xlink:href="option.drive_circle.html#state_done">
<ellipse cx="138" cy="300" rx="29" ry="29" style="fill:#ffffff;stroke:black;"/>
<ellipse cx="138" cy="300" rx="34" ry="34" style="fill:none;stroke:black;"/>
<text text-anchor="middle" x="138" y="304" style="font-family:Arial;font-size:12.00;fill:#005a9c;">done</text>
</a></g>
<g id="node9" class="node"><title>start</title>
<ellipse cx="92" cy="81" rx="2" ry="2" style="fill:black;stroke:black;"/>
</g>
<g id="node11" class="node"><title>_0</title>
<a xlink:href="option.drive_circle.html#state_turn_pseudo-code_0">
<polygon style="fill:#ffffff;stroke:black;" points="128,127 56,127 56,175 128,175 128,127"/>
</a></g>
<g id="edge11" class="edge"><title>start-&gt;_0</title>
<path style="fill:none;stroke:black;" d="M92,84C92,89 92,100 92,112"/>
<polygon style="fill:black;stroke:black;" points="96,113 92,127 89,113 96,113"/>
</g>
<g id="edge9" class="edge"><title>_0-&gt;state_turn</title>
<path style="fill:none;stroke:black;" d="M86,175C81,199 70,237 64,265"/>
<polygon style="fill:black;stroke:black;" points="68,264 61,276 61,263 68,264"/>
<text text-anchor="middle" x="78" y="191" style="font-size:14.67;">1</text>
</g>
<g id="edge13" class="edge"><title>_0-&gt;state_done</title>
<path style="fill:none;stroke:black;" d="M100,175C106,196 117,228 124,255"/>
<polygon style="fill:black;stroke:black;" points="126,253 128,267 120,255 126,253"/>
<text text-anchor="middle" x="98" y="193" style="font-size:14.67;">0</text>
</g>
</g></svg>
