<?xml version="1.0" encoding="UTF-8" standalone="no"?>
<!DOCTYPE svg PUBLIC "-//W3C//DTD SVG 1.0//EN"
 "http://www.w3.org/TR/2001/REC-SVG-20010904/DTD/svg10.dtd" [
 <!ATTLIST svg xmlns:xlink CDATA #FIXED "http://www.w3.org/1999/xlink">
]>
<!-- Generated by dot version 1.9 (Fri Jan 31 11:51:16 EST 2003)
     For user: Bill Gates   Title: g    Pages: 1 -->
<svg width="226px" height="215px"
 xmlns="http://www.w3.org/2000/svg" xmlns:xlink="http://www.w3.org/1999/xlink">
<g id="graph0" class="graph" style="font-family:Times-Roman;font-size:18.67;">
<title>g</title>
<g id="node2" class="node"><title>option_choose_role</title>
<a xlink:href="option.choose_role.html">
<polygon style="fill:#ffffff;stroke:black;" points="122,9 50,9 50,57 122,57 122,9"/>
<text text-anchor="middle" x="86" y="30" style="font-family:Arial;font-size:12.00;fill:#005a9c;">choose</text>
<text text-anchor="middle" x="86" y="44" style="font-family:Arial;font-size:12.00;fill:#005a9c;">role</text>
</a></g>
<g id="node6" class="node"><title>basic_behavior_wait</title>
<a xlink:href="basic-behaviors.my_basic_behaviors.html#wait">
<ellipse cx="81" cy="177" rx="36" ry="24" style="fill:#ffffff;stroke:black;"/>
<text text-anchor="middle" x="81" y="181" style="font-family:Arial;font-size:12.00;fill:#005a9c;">wait</text>
</a></g>
<g id="edge15" class="edge"><title>option_choose_role-&gt;basic_behavior_wait</title>
<path style="fill:none;stroke:#808080;" d="M56,57C49,64 42,72 38,81 30,101 32,110 38,129 41,137 46,145 52,150"/>
<polygon style="fill:#808080;stroke:#808080;" points="53,149 58,158 49,152 53,149"/>
</g>
<g id="node8" class="node"><title>option_drive_circle</title>
<a xlink:href="option.drive_circle.html">
<polygon style="fill:#ffffff;stroke:black;" points="218,81 146,81 146,129 218,129 218,81"/>
<text text-anchor="middle" x="182" y="102" style="font-family:Arial;font-size:12.00;fill:#005a9c;">drive</text>
<text text-anchor="middle" x="182" y="116" style="font-family:Arial;font-size:12.00;fill:#005a9c;">circle</text>
</a></g>
<g id="edge11" class="edge"><title>option_choose_role-&gt;option_drive_circle</title>
<path style="fill:none;stroke:#808080;" d="M118,57C126,62 134,69 141,74"/>
<polygon style="fill:#808080;stroke:#808080;" points="142,72 149,81 140,76 142,72"/>
</g>
<g id="node12" class="node"><title>option_walk_corridor</title>
<a xlink:href="option.walk_corridor.html">
<polygon style="fill:#ffffff;stroke:black;" points="122,81 50,81 50,129 122,129 122,81"/>
<text text-anchor="middle" x="86" y="102" style="font-family:Arial;font-size:12.00;fill:#005a9c;">walk</text>
<text text-anchor="middle" x="86" y="116" style="font-family:Arial;font-size:12.00;fill:#005a9c;">corridor</text>
</a></g>
<g id="edge13" class="edge"><title>option_choose_role-&gt;option_walk_corridor</title>
<path style="fill:none;stroke:#808080;" d="M86,57C86,61 86,66 86,70"/>
<polygon style="fill:#808080;stroke:#808080;" points="89,70 86,81 84,70 89,70"/>
</g>
<g id="node4" class="node"><title>basic_behavior_differential_drive</title>
<a xlink:href="basic-behaviors.my_basic_behaviors.html#differential_drive">
<ellipse cx="182" cy="177" rx="41" ry="24" style="fill:#ffffff;stroke:black;"/>
<text text-anchor="middle" x="182" y="174" style="font-family:Arial;font-size:12.00;fill:#005a9c;">differential</text>
<text text-anchor="middle" x="182" y="188" style="font-family:Arial;font-size:12.00;fill:#005a9c;">drive</text>
</a></g>
<g id="edge17" class="edge"><title>option_drive_circle-&gt;basic_behavior_differential_drive</title>
<path style="fill:none;stroke:#808080;" d="M182,129C182,133 182,138 182,142"/>
<polygon style="fill:#808080;stroke:#808080;" points="185,142 182,153 180,142 185,142"/>
</g>
<g id="edge19" class="edge"><title>option_drive_circle-&gt;basic_behavior_wait</title>
<path style="fill:none;stroke:#808080;" d="M148,129C137,137 125,145 114,153"/>
<polygon style="fill:#808080;stroke:#808080;" points="116,154 106,160 113,150 116,154"/>
</g>
<g id="edge21" class="edge"><title>option_walk_corridor-&gt;basic_behavior_differential_drive</title>
<path style="fill:none;stroke:#808080;" d="M118,129C128,137 140,145 149,153"/>
<polygon style="fill:#808080;stroke:#808080;" points="149,150 157,158 146,154 149,150"/>
</g>
<g id="edge23" class="edge"><title>option_walk_corridor-&gt;basic_behavior_wait</title>
<path style="fill:none;stroke:#808080;" d="M85,129C84,133 84,138 84,142"/>
<polygon style="fill:#808080;stroke:#808080;" points="86,142 82,153 81,142 86,142"/>
</g>
</g></svg>
