<?xml version="1.0" encoding="UTF-8" standalone="no"?>
<!DOCTYPE svg PUBLIC "-//W3C//DTD SVG 1.0//EN"
 "http://www.w3.org/TR/2001/REC-SVG-20010904/DTD/svg10.dtd" [
 <!ATTLIST svg xmlns:xlink CDATA #FIXED "http://www.w3.org/1999/xlink">
]>
<!-- Generated by dot version 1.9 (Fri Jan 31 11:51:16 EST 2003)
     For user: Bill Gates   Title: g    Pages: 1 -->
<svg width="303px" height="471px"
 xmlns="http://www.w3.org/2000/svg" xmlns:xlink="http://www.w3.org/1999/xlink">
<g id="graph0" class="graph" style="font-family:Times-Roman;font-size:18.67;">
<title>g</title>
<g id="graph2" class="cluster"><title>cluster_option</title>
<polygon style="fill:#f4f4f4;stroke:black;" points="10,457 290,457 290,9 10,9 10,457"/>
<text text-anchor="middle" x="94" y="26" style="font-family:Arial;font-size:16.00;fill:#005a9c;">option choose_role</text>
</g>
<g id="graph3" class="cluster"><title>cluster_states</title>
<polygon style="fill:#f4f4f4;stroke:#f4f4f4;" points="21,446 280,446 280,345 21,345 21,446"/>
</g>
<g id="graph7" class="cluster"><title>cluster_decision_tree</title>
<polygon style="fill:#ffffff;stroke:black;" points="110,276 204,276 204,44 110,44 110,276"/>
<text text-anchor="middle" x="174" y="61" style="font-family:Arial;font-size:16.00;fill:#005a9c;">state get_role</text>
</g>
<g id="node4" class="node"><title>state_drive_circle_state</title>
<a xlink:href="option.choose_role.html#state_drive_circle_state">
<ellipse cx="237" cy="396" rx="32" ry="32" style="fill:#ffffff;stroke:black;"/>
<text text-anchor="middle" x="237" y="386" style="font-family:Arial;font-size:12.00;fill:#005a9c;">drive</text>
<text text-anchor="middle" x="237" y="400" style="font-family:Arial;font-size:12.00;fill:#005a9c;">circle</text>
<text text-anchor="middle" x="237" y="413" style="font-family:Arial;font-size:12.00;fill:#005a9c;">state</text>
</a></g>
<g id="node6" class="node"><title>state_walk_corridor_state</title>
<a xlink:href="option.choose_role.html#state_walk_corridor_state">
<ellipse cx="70" cy="396" rx="38" ry="38" style="fill:#ffffff;stroke:black;"/>
<text text-anchor="middle" x="70" y="386" style="font-family:Arial;font-size:12.00;fill:#005a9c;">walk</text>
<text text-anchor="middle" x="70" y="400" style="font-family:Arial;font-size:12.00;fill:#005a9c;">corridor</text>
<text text-anchor="middle" x="70" y="413" style="font-family:Arial;font-size:12.00;fill:#005a9c;">state</text>
</a></g>
<g id="node8" class="node"><title>state_get_role</title>
<ellipse cx="157" cy="396" rx="24" ry="24" style="fill:none;stroke:black;stroke-dasharray:5,2;"/>
<polyline style="fill:none;stroke:black;stroke-dasharray:5,2;" points="172,378 142,378 "/>
<polyline style="fill:none;stroke:black;stroke-dasharray:5,2;" points="172,413 142,413 "/>
<text text-anchor="middle" x="157" y="393" style="font-family:Arial;font-size:12.00;fill:#005a9c;">get</text>
<text text-anchor="middle" x="157" y="406" style="font-family:Arial;font-size:12.00;fill:#005a9c;">role</text>
</g>
<g id="node11" class="node"><title>start</title>
<ellipse cx="157" cy="81" rx="2" ry="2" style="fill:black;stroke:black;"/>
</g>
<g id="node13" class="node"><title>_0</title>
<a xlink:href="option.choose_role.html#state_get_role_pseudo-code_0">
<polygon style="fill:#ffffff;stroke:black;" points="193,126 121,126 121,174 193,174 193,126"/>
</a></g>
<g id="edge12" class="edge"><title>start-&gt;_0</title>
<path style="fill:none;stroke:black;" d="M157,84C157,89 157,100 157,112"/>
<polygon style="fill:black;stroke:black;" points="161,113 157,126 154,113 161,113"/>
</g>
<g id="edge10" class="edge"><title>_0-&gt;state_drive_circle_state</title>
<path style="fill:none;stroke:black;" d="M178,174C188,186 198,202 205,217 224,261 232,314 234,352"/>
<polygon style="fill:black;stroke:black;" points="237,350 236,364 230,350 237,350"/>
<text text-anchor="middle" x="181" y="193" style="font-size:14.67;">1</text>
</g>
<g id="node17" class="node"><title>_1_0</title>
<a xlink:href="option.choose_role.html#state_get_role_pseudo-code_1_0">
<polygon style="fill:#ffffff;stroke:black;" points="193,217 121,217 121,265 193,265 193,217"/>
</a></g>
<g id="edge17" class="edge"><title>_0-&gt;_1_0</title>
<path style="fill:none;stroke:black;" d="M157,174C157,184 157,194 157,204"/>
<polygon style="fill:black;stroke:black;" points="161,204 157,217 154,204 161,204"/>
<text text-anchor="middle" x="152" y="192" style="font-size:14.67;">0</text>
</g>
<g id="edge15" class="edge"><title>_1_0-&gt;state_walk_corridor_state</title>
<path style="fill:none;stroke:black;" d="M144,265C130,289 112,322 97,350"/>
<polygon style="fill:black;stroke:black;" points="100,352 90,361 94,348 100,352"/>
<text text-anchor="middle" x="133" y="278" style="font-size:14.67;">1</text>
</g>
<g id="edge19" class="edge"><title>_1_0-&gt;state_get_role</title>
<path style="fill:none;stroke:black;" d="M157,265C157,290 157,330 157,360"/>
<polygon style="fill:black;stroke:black;" points="161,358 157,372 154,358 161,358"/>
<text text-anchor="middle" x="152" y="282" style="font-size:14.67;">0</text>
</g>
</g></svg>
