<?xml version="1.0" encoding="UTF-8" standalone="no"?>
<!DOCTYPE svg PUBLIC "-//W3C//DTD SVG 1.0//EN"
 "http://www.w3.org/TR/2001/REC-SVG-20010904/DTD/svg10.dtd" [
 <!ATTLIST svg xmlns:xlink CDATA #FIXED "http://www.w3.org/1999/xlink">
]>
<!-- Generated by dot version 1.9 (Fri Jan 31 11:51:16 EST 2003)
     For user: Bill Gates   Title: g    Pages: 1 -->
<svg width="604px" height="468px"
 xmlns="http://www.w3.org/2000/svg" xmlns:xlink="http://www.w3.org/1999/xlink">
<g id="graph0" class="graph" style="font-family:Times-Roman;font-size:18.67;">
<title>g</title>
<g id="graph2" class="cluster"><title>cluster_option</title>
<polygon style="fill:#f4f4f4;stroke:black;" points="10,285 490,285 490,9 10,9 10,285"/>
<text text-anchor="middle" x="98" y="26" style="font-family:Arial;font-size:16.00;fill:#005a9c;">option walk_corridor</text>
</g>
<g id="graph11" class="cluster"><title>cluster_option_tree</title>
<polygon style="fill:none;stroke:#ffffff;" points="277,454 482,454 482,385 277,385 277,454"/>
</g>
<g id="node4" class="node"><title>state_decide_movement</title>
<a xlink:href="option.walk_corridor.html#state_decide_movement">
<ellipse cx="306" cy="98" rx="53" ry="53" style="fill:#ffffff;stroke:black;"/>
<polyline style="fill:none;stroke:black;" points="341,58 272,58 "/>
<polyline style="fill:none;stroke:black;" points="341,138 272,138 "/>
<text text-anchor="middle" x="306" y="95" style="font-family:Arial;font-size:12.00;fill:#005a9c;">decide</text>
<text text-anchor="middle" x="306" y="109" style="font-family:Arial;font-size:12.00;fill:#005a9c;">movement</text>
</a></g>
<g id="edge19" class="edge"><title>state_decide_movement-&gt;state_decide_movement</title>
<path style="fill:none;stroke:black;" d="M345,135C368,143 389,131 389,98 389,70 374,57 356,58"/>
<polygon style="fill:black;stroke:black;" points="358,61 345,61 357,54 358,61"/>
</g>
<g id="node7" class="node"><title>state_move_forward</title>
<a xlink:href="option.walk_corridor.html#state_move_forward">
<ellipse cx="62" cy="233" rx="41" ry="41" style="fill:#ffffff;stroke:black;"/>
<text text-anchor="middle" x="62" y="230" style="font-family:Arial;font-size:12.00;fill:#005a9c;">move</text>
<text text-anchor="middle" x="62" y="243" style="font-family:Arial;font-size:12.00;fill:#005a9c;">forward</text>
</a></g>
<g id="edge13" class="edge"><title>state_decide_movement-&gt;state_move_forward</title>
<path style="fill:none;stroke:black;" d="M257,121C214,143 150,178 108,202"/>
<polygon style="fill:black;stroke:black;" points="110,205 97,209 106,199 110,205"/>
</g>
<g id="node9" class="node"><title>state_move_left</title>
<a xlink:href="option.walk_corridor.html#state_move_left">
<ellipse cx="189" cy="233" rx="32" ry="32" style="fill:#ffffff;stroke:black;"/>
<text text-anchor="middle" x="189" y="230" style="font-family:Arial;font-size:12.00;fill:#005a9c;">move</text>
<text text-anchor="middle" x="189" y="243" style="font-family:Arial;font-size:12.00;fill:#005a9c;">left</text>
</a></g>
<g id="edge17" class="edge"><title>state_decide_movement-&gt;state_move_left</title>
<path style="fill:none;stroke:black;" d="M266,134C248,153 226,175 212,195"/>
<polygon style="fill:black;stroke:black;" points="216,195 205,205 210,191 216,195"/>
</g>
<g id="node11" class="node"><title>state_move_right</title>
<a xlink:href="option.walk_corridor.html#state_move_right">
<ellipse cx="306" cy="233" rx="32" ry="32" style="fill:#ffffff;stroke:black;"/>
<text text-anchor="middle" x="306" y="230" style="font-family:Arial;font-size:12.00;fill:#005a9c;">move</text>
<text text-anchor="middle" x="306" y="243" style="font-family:Arial;font-size:12.00;fill:#005a9c;">right</text>
</a></g>
<g id="edge15" class="edge"><title>state_decide_movement-&gt;state_move_right</title>
<path style="fill:none;stroke:black;" d="M296,151C296,165 296,178 296,190"/>
<polygon style="fill:black;stroke:black;" points="298,189 297,202 292,189 298,189"/>
</g>
<g id="node14" class="node"><title>state_move_back</title>
<a xlink:href="option.walk_corridor.html#state_move_back">
<ellipse cx="424" cy="233" rx="32" ry="32" style="fill:#ffffff;stroke:black;"/>
<text text-anchor="middle" x="424" y="230" style="font-family:Arial;font-size:12.00;fill:#005a9c;">move</text>
<text text-anchor="middle" x="424" y="243" style="font-family:Arial;font-size:12.00;fill:#005a9c;">back</text>
</a></g>
<g id="edge11" class="edge"><title>state_decide_movement-&gt;state_move_back</title>
<path style="fill:none;stroke:black;" d="M336,143C353,163 373,186 390,205"/>
<polygon style="fill:black;stroke:black;" points="392,201 398,213 386,206 392,201"/>
</g>
<g id="node30" class="node"><title>basic_behavior_differential_drive</title>
<a xlink:href="basic-behaviors.my_basic_behaviors.html#differential_drive">
<ellipse cx="329" cy="419" rx="41" ry="24" style="fill:#ffffff;stroke:black;"/>
<text text-anchor="middle" x="329" y="417" style="font-family:Arial;font-size:12.00;fill:#005a9c;">differential</text>
<text text-anchor="middle" x="329" y="430" style="font-family:Arial;font-size:12.00;fill:#005a9c;">drive</text>
</a></g>
<g id="edge40" class="edge"><title>state_decide_movement-&gt;basic_behavior_differential_drive</title>
<path style="fill:none;stroke:#808080;stroke-dasharray:5,2;" d="M360,107C404,119 465,143 494,191 514,227 510,247 494,285 490,293 413,362 370,395"/>
<polygon style="fill:#808080;stroke:#808080;" points="370,398 361,403 368,394 370,398"/>
</g>
<g id="node32" class="node"><title>basic_behavior_wait</title>
<a xlink:href="basic-behaviors.my_basic_behaviors.html#wait">
<ellipse cx="436" cy="419" rx="36" ry="24" style="fill:#ffffff;stroke:black;"/>
<text text-anchor="middle" x="436" y="423" style="font-family:Arial;font-size:12.00;fill:#005a9c;">wait</text>
</a></g>
<g id="edge42" class="edge"><title>state_decide_movement-&gt;basic_behavior_wait</title>
<path style="fill:none;stroke:#808080;stroke-dasharray:5,2;" d="M360,102C362,102 366,103 368,103 444,119 485,122 521,191 554,259 497,346 461,390"/>
<polygon style="fill:#808080;stroke:#808080;" points="462,393 454,399 458,389 462,393"/>
</g>
<g id="edge23" class="edge"><title>state_move_forward-&gt;state_decide_movement</title>
<path style="fill:none;stroke:black;" d="M249,134C204,162 140,195 100,215"/>
<polygon style="fill:black;stroke:black;" points="248,131 261,127 250,137 248,131"/>
</g>
<g id="edge21" class="edge"><title>state_move_forward-&gt;state_move_forward</title>
<path style="fill:none;stroke:black;" d="M93,261C113,269 133,259 133,233 133,211 120,201 104,202"/>
<polygon style="fill:black;stroke:black;" points="106,205 93,205 105,198 106,205"/>
</g>
<g id="edge44" class="edge"><title>state_move_forward-&gt;basic_behavior_differential_drive</title>
<path style="fill:none;stroke:#808080;stroke-dasharray:5,2;" d="M92,262C130,301 204,366 280,405"/>
<polygon style="fill:#808080;stroke:#808080;" points="282,403 290,410 280,407 282,403"/>
</g>
<g id="edge25" class="edge"><title>state_move_left-&gt;state_decide_movement</title>
<path style="fill:none;stroke:black;" d="M268,154C250,175 230,197 214,213"/>
<polygon style="fill:black;stroke:black;" points="266,151 277,143 270,155 266,151"/>
</g>
<g id="edge27" class="edge"><title>state_move_left-&gt;state_move_left</title>
<path style="fill:none;stroke:black;" d="M213,254C232,261 250,254 250,233 250,215 238,207 224,209"/>
<polygon style="fill:black;stroke:black;" points="226,211 213,211 225,205 226,211"/>
</g>
<g id="edge46" class="edge"><title>state_move_left-&gt;basic_behavior_differential_drive</title>
<path style="fill:none;stroke:#808080;stroke-dasharray:5,2;" d="M208,259C229,291 266,342 304,389"/>
<polygon style="fill:#808080;stroke:#808080;" points="306,387 310,398 302,391 306,387"/>
</g>
<g id="edge29" class="edge"><title>state_move_right-&gt;state_decide_movement</title>
<path style="fill:none;stroke:black;" d="M317,163C317,177 317,191 316,202"/>
<polygon style="fill:black;stroke:black;" points="314,165 317,151 321,165 314,165"/>
</g>
<g id="edge31" class="edge"><title>state_move_right-&gt;state_move_right</title>
<path style="fill:none;stroke:black;" d="M330,254C349,261 368,254 368,233 368,215 356,207 341,209"/>
<polygon style="fill:black;stroke:black;" points="344,211 330,211 342,205 344,211"/>
</g>
<g id="edge48" class="edge"><title>state_move_right-&gt;basic_behavior_differential_drive</title>
<path style="fill:none;stroke:#808080;stroke-dasharray:5,2;" d="M310,265C314,298 321,350 325,385"/>
<polygon style="fill:#808080;stroke:#808080;" points="328,385 326,395 322,385 328,385"/>
</g>
<g id="edge33" class="edge"><title>state_move_back-&gt;state_decide_movement</title>
<path style="fill:none;stroke:black;" d="M354,142C374,162 394,186 408,205"/>
<polygon style="fill:black;stroke:black;" points="353,146 346,134 358,141 353,146"/>
</g>
<g id="edge35" class="edge"><title>state_move_back-&gt;state_move_back</title>
<path style="fill:none;stroke:black;" d="M448,254C466,261 485,254 485,233 485,215 473,209 460,209"/>
<polygon style="fill:black;stroke:black;" points="461,211 448,211 460,205 461,211"/>
</g>
<g id="edge50" class="edge"><title>state_move_back-&gt;basic_behavior_differential_drive</title>
<path style="fill:none;stroke:#808080;stroke-dasharray:5,2;" d="M409,262C392,297 364,353 345,387"/>
<polygon style="fill:#808080;stroke:#808080;" points="348,387 341,397 342,386 348,387"/>
</g>
</g></svg>
