<?xml version="1.0" encoding="UTF-8" standalone="no"?>
<!DOCTYPE svg PUBLIC "-//W3C//DTD SVG 1.0//EN"
 "http://www.w3.org/TR/2001/REC-SVG-20010904/DTD/svg10.dtd" [
 <!ATTLIST svg xmlns:xlink CDATA #FIXED "http://www.w3.org/1999/xlink">
]>
<!-- Generated by dot version 1.9 (Fri Jan 31 11:51:16 EST 2003)
     For user: Bill Gates   Title: g    Pages: 1 -->
<svg width="224px" height="352px"
 xmlns="http://www.w3.org/2000/svg" xmlns:xlink="http://www.w3.org/1999/xlink">
<g id="graph0" class="graph" style="font-family:Times-Roman;font-size:18.67;">
<title>g</title>
<g id="graph2" class="cluster"><title>cluster_option</title>
<polygon style="fill:#f4f4f4;stroke:black;" points="10,210 125,210 125,9 10,9 10,210"/>
<text text-anchor="middle" x="89" y="26" style="font-family:Arial;font-size:16.00;fill:#005a9c;">option drive_circle</text>
</g>
<g id="graph7" class="cluster"><title>cluster_option_tree</title>
<polygon style="fill:none;stroke:#ffffff;" points="108,338 212,338 212,269 108,269 108,338"/>
</g>
<g id="node4" class="node"><title>state_turn</title>
<a xlink:href="option.drive_circle.html#state_turn">
<ellipse cx="61" cy="67" rx="24" ry="24" style="fill:#ffffff;stroke:black;"/>
<polyline style="fill:none;stroke:black;" points="76,50 46,50 "/>
<polyline style="fill:none;stroke:black;" points="76,85 46,85 "/>
<text text-anchor="middle" x="61" y="71" style="font-family:Arial;font-size:12.00;fill:#005a9c;">turn</text>
</a></g>
<g id="edge7" class="edge"><title>state_turn-&gt;state_turn</title>
<path style="fill:none;stroke:black;" d="M80,82C97,89 114,85 114,67 114,54 104,49 92,50"/>
<polygon style="fill:black;stroke:black;" points="93,53 80,53 92,46 93,53"/>
</g>
<g id="node7" class="node"><title>state_done</title>
<a xlink:href="option.drive_circle.html#state_done">
<ellipse cx="56" cy="165" rx="29" ry="29" style="fill:#ffffff;stroke:black;"/>
<ellipse cx="56" cy="165" rx="34" ry="34" style="fill:none;stroke:black;"/>
<text text-anchor="middle" x="56" y="169" style="font-family:Arial;font-size:12.00;fill:#005a9c;">done</text>
</a></g>
<g id="edge9" class="edge"><title>state_turn-&gt;state_done</title>
<path style="fill:none;stroke:black;" d="M60,91C60,99 60,109 58,118"/>
<polygon style="fill:black;stroke:black;" points="62,117 58,130 56,117 62,117"/>
</g>
<g id="node13" class="node"><title>basic_behavior_differential_drive</title>
<a xlink:href="basic-behaviors.my_basic_behaviors.html#differential_drive">
<ellipse cx="160" cy="303" rx="41" ry="24" style="fill:#ffffff;stroke:black;"/>
<text text-anchor="middle" x="160" y="301" style="font-family:Arial;font-size:12.00;fill:#005a9c;">differential</text>
<text text-anchor="middle" x="160" y="314" style="font-family:Arial;font-size:12.00;fill:#005a9c;">drive</text>
</a></g>
<g id="edge15" class="edge"><title>state_turn-&gt;basic_behavior_differential_drive</title>
<path style="fill:none;stroke:#808080;stroke-dasharray:5,2;" d="M81,81C97,91 118,109 129,130 153,174 158,231 160,269"/>
<polygon style="fill:#808080;stroke:#808080;" points="162,269 160,279 157,269 162,269"/>
</g>
<g id="edge11" class="edge"><title>state_done-&gt;state_done</title>
<path style="fill:none;stroke:black;" d="M82,187C101,195 120,187 120,165 120,147 108,138 94,139"/>
<polygon style="fill:black;stroke:black;" points="96,142 82,142 94,135 96,142"/>
</g>
</g></svg>
