<?xml version="1.0" encoding="UTF-8" standalone="no"?>
<!DOCTYPE svg PUBLIC "-//W3C//DTD SVG 1.0//EN"
 "http://www.w3.org/TR/2001/REC-SVG-20010904/DTD/svg10.dtd" [
 <!ATTLIST svg xmlns:xlink CDATA #FIXED "http://www.w3.org/1999/xlink">
]>
<!-- Generated by dot version 1.9 (Fri Jan 31 11:51:16 EST 2003)
     For user: Bill Gates   Title: g    Pages: 1 -->
<svg width="214px" height="342px"
 xmlns="http://www.w3.org/2000/svg" xmlns:xlink="http://www.w3.org/1999/xlink">
<g id="graph0" class="graph" style="font-family:Times-Roman;font-size:18.67;">
<title>g</title>
<g id="graph2" class="cluster"><title>cluster_option</title>
<polygon style="fill:#f4f4f4;stroke:black;" points="10,200 114,200 114,9 10,9 10,200"/>
<text text-anchor="middle" x="89" y="27" style="font-family:Arial;font-size:16.00;fill:#005a9c;">option drive_circle</text>
</g>
<g id="graph7" class="cluster"><title>cluster_option_tree</title>
<polygon style="fill:none;stroke:#ffffff;" points="97,328 201,328 201,259 97,259 97,328"/>
</g>
<g id="node4" class="node"><title>state_turn</title>
<a xlink:href="option.drive_circle.html#state_turn">
<ellipse cx="53" cy="68" rx="24" ry="24" style="fill:#ffffff;stroke:black;"/>
<polyline style="fill:none;stroke:black;" points="68,51 38,51 "/>
<polyline style="fill:none;stroke:black;" points="68,85 38,85 "/>
<text text-anchor="middle" x="53" y="72" style="font-family:Arial;font-size:12.00;fill:#005a9c;">turn</text>
</a></g>
<g id="edge7" class="edge"><title>state_turn-&gt;state_turn</title>
<path style="fill:none;stroke:black;" d="M72,83C89,89 106,85 106,68 106,55 96,49 84,51"/>
<polygon style="fill:black;stroke:black;" points="85,53 72,53 84,47 85,53"/>
</g>
<g id="node7" class="node"><title>state_done</title>
<a xlink:href="option.drive_circle.html#state_done">
<ellipse cx="50" cy="160" rx="29" ry="29" style="fill:#ffffff;stroke:black;"/>
<text text-anchor="middle" x="50" y="164" style="font-family:Arial;font-size:12.00;fill:#005a9c;">done</text>
</a></g>
<g id="edge9" class="edge"><title>state_turn-&gt;state_done</title>
<path style="fill:none;stroke:black;" d="M52,92C52,100 52,109 52,117"/>
<polygon style="fill:black;stroke:black;" points="56,117 52,131 49,117 56,117"/>
</g>
<g id="node13" class="node"><title>basic_behavior_differential_drive</title>
<a xlink:href="basic-behaviors.my_basic_behaviors.html#differential_drive">
<ellipse cx="149" cy="293" rx="41" ry="24" style="fill:#ffffff;stroke:black;"/>
<text text-anchor="middle" x="149" y="291" style="font-family:Arial;font-size:12.00;fill:#005a9c;">differential</text>
<text text-anchor="middle" x="149" y="304" style="font-family:Arial;font-size:12.00;fill:#005a9c;">drive</text>
</a></g>
<g id="edge15" class="edge"><title>state_turn-&gt;basic_behavior_differential_drive</title>
<path style="fill:none;stroke:#808080;stroke-dasharray:5,2;" d="M73,81C88,93 108,111 118,131 140,172 146,225 149,260"/>
<polygon style="fill:#808080;stroke:#808080;" points="152,259 149,269 146,259 152,259"/>
</g>
<g id="edge11" class="edge"><title>state_done-&gt;state_done</title>
<path style="fill:none;stroke:black;" d="M73,179C90,187 109,180 109,160 109,144 98,137 85,139"/>
<polygon style="fill:black;stroke:black;" points="86,141 73,141 85,135 86,141"/>
</g>
</g></svg>
