<?xml version="1.0" encoding="UTF-8" standalone="no"?>
<!DOCTYPE svg PUBLIC "-//W3C//DTD SVG 1.0//EN"
 "http://www.w3.org/TR/2001/REC-SVG-20010904/DTD/svg10.dtd" [
 <!ATTLIST svg xmlns:xlink CDATA #FIXED "http://www.w3.org/1999/xlink">
]>
<!-- Generated by dot version 1.9 (Fri Jan 31 11:51:16 EST 2003)
     For user: Bill Gates   Title: g    Pages: 1 -->
<svg width="228px" height="383px"
 xmlns="http://www.w3.org/2000/svg" xmlns:xlink="http://www.w3.org/1999/xlink">
<g id="graph0" class="graph" style="font-family:Times-Roman;font-size:18.67;">
<title>g</title>
<g id="graph2" class="cluster"><title>cluster_option</title>
<polygon style="fill:#f4f4f4;stroke:black;" points="41,200 145,200 145,9 41,9 41,200"/>
<text text-anchor="middle" x="120" y="26" style="font-family:Arial;font-size:16.00;fill:#005a9c;">option drive_circle</text>
</g>
<g id="graph7" class="cluster"><title>cluster_option_tree</title>
<polygon style="fill:none;stroke:#ffffff;" points="10,369 216,369 216,300 10,300 10,369"/>
</g>
<g id="node4" class="node"><title>state_turn</title>
<a xlink:href="option.drive_circle.html#state_turn">
<ellipse cx="81" cy="68" rx="24" ry="24" style="fill:#ffffff;stroke:black;"/>
<polyline style="fill:none;stroke:black;" points="96,50 66,50 "/>
<polyline style="fill:none;stroke:black;" points="96,85 66,85 "/>
<text text-anchor="middle" x="81" y="72" style="font-family:Arial;font-size:12.00;fill:#005a9c;">turn</text>
</a></g>
<g id="edge7" class="edge"><title>state_turn-&gt;state_turn</title>
<path style="fill:none;stroke:black;" d="M100,82C117,89 134,85 134,68 134,54 124,49 112,50"/>
<polygon style="fill:black;stroke:black;" points="113,53 100,53 112,46 113,53"/>
</g>
<g id="node7" class="node"><title>state_done</title>
<a xlink:href="option.drive_circle.html#state_done">
<ellipse cx="81" cy="160" rx="29" ry="29" style="fill:#ffffff;stroke:black;"/>
<text text-anchor="middle" x="81" y="164" style="font-family:Arial;font-size:12.00;fill:#005a9c;">done</text>
</a></g>
<g id="edge9" class="edge"><title>state_turn-&gt;state_done</title>
<path style="fill:none;stroke:black;" d="M72,90C70,98 70,109 70,118"/>
<polygon style="fill:black;stroke:black;" points="73,118 72,132 68,118 73,118"/>
</g>
<g id="node14" class="node"><title>basic_behavior_differential_drive</title>
<a xlink:href="basic-behaviors.my_basic_behaviors.html#differential_drive">
<ellipse cx="164" cy="334" rx="41" ry="24" style="fill:#ffffff;stroke:black;"/>
<text text-anchor="middle" x="164" y="332" style="font-family:Arial;font-size:12.00;fill:#005a9c;">differential</text>
<text text-anchor="middle" x="164" y="345" style="font-family:Arial;font-size:12.00;fill:#005a9c;">drive</text>
</a></g>
<g id="edge18" class="edge"><title>state_turn-&gt;basic_behavior_differential_drive</title>
<path style="fill:none;stroke:#808080;stroke-dasharray:5,2;" d="M102,81C118,92 138,109 149,130 174,185 172,257 169,300"/>
<polygon style="fill:#808080;stroke:#808080;" points="172,300 168,310 166,300 172,300"/>
</g>
<g id="edge13" class="edge"><title>state_done-&gt;state_turn</title>
<path style="fill:none;stroke:black;" d="M92,101C92,112 92,122 90,132"/>
<polygon style="fill:black;stroke:black;" points="89,104 90,90 96,104 89,104"/>
</g>
<g id="edge11" class="edge"><title>state_done-&gt;state_done</title>
<path style="fill:none;stroke:black;" d="M104,178C121,186 140,180 140,160 140,144 129,137 116,138"/>
<polygon style="fill:black;stroke:black;" points="117,141 104,141 116,134 117,141"/>
</g>
<g id="edge20" class="edge"><title>state_done-&gt;basic_behavior_differential_drive</title>
<path style="fill:none;stroke:#808080;stroke-dasharray:5,2;" d="M93,186C109,218 132,268 149,302"/>
<polygon style="fill:#808080;stroke:#808080;" points="152,301 153,312 146,302 152,301"/>
</g>
<g id="node16" class="node"><title>basic_behavior_wait</title>
<a xlink:href="basic-behaviors.my_basic_behaviors.html#wait">
<ellipse cx="57" cy="334" rx="36" ry="24" style="fill:#ffffff;stroke:black;"/>
<text text-anchor="middle" x="57" y="338" style="font-family:Arial;font-size:12.00;fill:#005a9c;">wait</text>
</a></g>
<g id="edge22" class="edge"><title>state_done-&gt;basic_behavior_wait</title>
<path style="fill:none;stroke:#808080;stroke-dasharray:5,2;" d="M77,189C73,218 66,268 62,300"/>
<polygon style="fill:#808080;stroke:#808080;" points="65,300 61,310 60,300 65,300"/>
</g>
</g></svg>
