<?xml version="1.0" encoding="UTF-8" standalone="no"?>
<!DOCTYPE svg PUBLIC "-//W3C//DTD SVG 1.0//EN"
 "http://www.w3.org/TR/2001/REC-SVG-20010904/DTD/svg10.dtd" [
 <!ATTLIST svg xmlns:xlink CDATA #FIXED "http://www.w3.org/1999/xlink">
]>
<!-- Generated by dot version 1.9 (Fri Jan 31 11:51:16 EST 2003)
     For user: Bill Gates   Title: g    Pages: 1 -->
<svg width="254px" height="364px"
 xmlns="http://www.w3.org/2000/svg" xmlns:xlink="http://www.w3.org/1999/xlink">
<g id="graph0" class="graph" style="font-family:Times-Roman;font-size:18.67;">
<title>g</title>
<g id="graph2" class="cluster"><title>cluster_option</title>
<polygon style="fill:#f4f4f4;stroke:black;" points="10,350 189,350 189,9 10,9 10,350"/>
<text text-anchor="middle" x="94" y="26" style="font-family:Arial;font-size:16.00;fill:#005a9c;">option choose_role</text>
</g>
<g id="graph3" class="cluster"><title>cluster_states</title>
<polygon style="fill:#f4f4f4;stroke:#f4f4f4;" points="21,339 178,339 178,254 21,254 21,339"/>
</g>
<g id="graph6" class="cluster"><title>cluster_decision_tree</title>
<polygon style="fill:#ffffff;stroke:black;" points="46,185 140,185 140,43 46,43 46,185"/>
<text text-anchor="middle" x="149" y="61" style="font-family:Arial;font-size:16.00;fill:#005a9c;">state drive_circle_state</text>
</g>
<g id="node4" class="node"><title>state_drive_circle_state</title>
<ellipse cx="64" cy="297" rx="32" ry="32" style="fill:none;stroke:black;stroke-dasharray:5,2;"/>
<text text-anchor="middle" x="64" y="287" style="font-family:Arial;font-size:12.00;fill:#005a9c;">drive</text>
<text text-anchor="middle" x="64" y="301" style="font-family:Arial;font-size:12.00;fill:#005a9c;">circle</text>
<text text-anchor="middle" x="64" y="314" style="font-family:Arial;font-size:12.00;fill:#005a9c;">state</text>
</g>
<g id="node6" class="node"><title>state_get_role</title>
<a xlink:href="option.choose_role.html#state_get_role">
<ellipse cx="144" cy="297" rx="24" ry="24" style="fill:#ffffff;stroke:black;"/>
<polyline style="fill:none;stroke:black;" points="158,279 129,279 "/>
<polyline style="fill:none;stroke:black;" points="158,314 129,314 "/>
<text text-anchor="middle" x="144" y="294" style="font-family:Arial;font-size:12.00;fill:#005a9c;">get</text>
<text text-anchor="middle" x="144" y="307" style="font-family:Arial;font-size:12.00;fill:#005a9c;">role</text>
</a></g>
<g id="node9" class="node"><title>start</title>
<ellipse cx="93" cy="81" rx="2" ry="2" style="fill:black;stroke:black;"/>
</g>
<g id="node11" class="node"><title>_0</title>
<a xlink:href="option.choose_role.html#state_drive_circle_state_pseudo-code_0">
<polygon style="fill:#ffffff;stroke:black;" points="129,126 57,126 57,174 129,174 129,126"/>
</a></g>
<g id="edge11" class="edge"><title>start-&gt;_0</title>
<path style="fill:none;stroke:black;" d="M93,83C93,89 93,99 93,111"/>
<polygon style="fill:black;stroke:black;" points="97,113 93,126 90,113 97,113"/>
</g>
<g id="edge9" class="edge"><title>_0-&gt;state_drive_circle_state</title>
<path style="fill:none;stroke:black;" d="M88,174C84,195 77,227 73,253"/>
<polygon style="fill:black;stroke:black;" points="77,253 70,265 70,251 77,253"/>
<text text-anchor="middle" x="80" y="190" style="font-size:14.67;">1</text>
</g>
<g id="edge13" class="edge"><title>_0-&gt;state_get_role</title>
<path style="fill:none;stroke:black;" d="M101,174C109,198 122,235 132,263"/>
<polygon style="fill:black;stroke:black;" points="134,261 136,274 128,263 134,261"/>
<text text-anchor="middle" x="100" y="193" style="font-size:14.67;">0</text>
</g>
</g></svg>
