<?xml version="1.0" encoding="UTF-8" standalone="no"?>
<!DOCTYPE svg PUBLIC "-//W3C//DTD SVG 1.0//EN"
 "http://www.w3.org/TR/2001/REC-SVG-20010904/DTD/svg10.dtd" [
 <!ATTLIST svg xmlns:xlink CDATA #FIXED "http://www.w3.org/1999/xlink">
]>
<!-- Generated by dot version 1.9 (Fri Jan 31 11:51:16 EST 2003)
     For user: Bill Gates   Title: g    Pages: 1 -->
<svg width="196px" height="383px"
 xmlns="http://www.w3.org/2000/svg" xmlns:xlink="http://www.w3.org/1999/xlink">
<g id="graph0" class="graph" style="font-family:Times-Roman;font-size:18.67;">
<title>g</title>
<g id="graph2" class="cluster"><title>cluster_option</title>
<polygon style="fill:#f4f4f4;stroke:black;" points="10,369 184,369 184,9 10,9 10,369"/>
<text text-anchor="middle" x="89" y="26" style="font-family:Arial;font-size:16.00;fill:#005a9c;">option drive_circle</text>
</g>
<g id="graph3" class="cluster"><title>cluster_states</title>
<polygon style="fill:#f4f4f4;stroke:#f4f4f4;" points="21,358 173,358 173,278 21,278 21,358"/>
</g>
<g id="graph6" class="cluster"><title>cluster_decision_tree</title>
<polygon style="fill:#ffffff;stroke:black;" points="44,209 150,209 150,44 44,44 44,209"/>
<text text-anchor="middle" x="94" y="61" style="font-family:Arial;font-size:16.00;fill:#005a9c;">state done</text>
</g>
<g id="node4" class="node"><title>state_done</title>
<ellipse cx="61" cy="318" rx="29" ry="29" style="fill:none;stroke:black;stroke-dasharray:5,2;"/>
<text text-anchor="middle" x="61" y="322" style="font-family:Arial;font-size:12.00;fill:#005a9c;">done</text>
</g>
<g id="node6" class="node"><title>state_turn</title>
<a xlink:href="option.drive_circle.html#state_turn">
<ellipse cx="138" cy="318" rx="24" ry="24" style="fill:#ffffff;stroke:black;"/>
<polyline style="fill:none;stroke:black;" points="153,301 124,301 "/>
<polyline style="fill:none;stroke:black;" points="153,336 124,336 "/>
<text text-anchor="middle" x="138" y="322" style="font-family:Arial;font-size:12.00;fill:#005a9c;">turn</text>
</a></g>
<g id="node9" class="node"><title>start</title>
<ellipse cx="97" cy="81" rx="2" ry="2" style="fill:black;stroke:black;"/>
</g>
<g id="node11" class="node"><title>_0</title>
<a xlink:href="option.drive_circle.html#state_done_pseudo-code_0">
<polygon style="fill:#ffffff;stroke:black;" points="140,126 54,126 54,198 140,198 140,126"/>
<text text-anchor="middle" x="97" y="140" style="font-family:Arial;font-size:12.00;">If we</text>
<text text-anchor="middle" x="97" y="153" style="font-family:Arial;font-size:12.00;">have waited</text>
<text text-anchor="middle" x="97" y="166" style="font-family:Arial;font-size:12.00;">10 seconds,</text>
<text text-anchor="middle" x="97" y="180" style="font-family:Arial;font-size:12.00;">start</text>
<text text-anchor="middle" x="97" y="193" style="font-family:Arial;font-size:12.00;">over.</text>
</a></g>
<g id="edge11" class="edge"><title>start-&gt;_0</title>
<path style="fill:none;stroke:black;" d="M97,84C97,89 97,100 97,112"/>
<polygon style="fill:black;stroke:black;" points="101,113 97,126 94,113 101,113"/>
</g>
<g id="edge9" class="edge"><title>_0-&gt;state_done</title>
<path style="fill:none;stroke:black;" d="M89,198C84,222 77,253 70,278"/>
<polygon style="fill:black;stroke:black;" points="74,278 68,290 68,277 74,278"/>
<text text-anchor="middle" x="81" y="214" style="font-size:14.67;">1</text>
</g>
<g id="edge13" class="edge"><title>_0-&gt;state_turn</title>
<path style="fill:none;stroke:black;" d="M106,198C113,225 122,258 129,285"/>
<polygon style="fill:black;stroke:black;" points="132,282 132,296 125,284 132,282"/>
<text text-anchor="middle" x="104" y="217" style="font-size:14.67;">0</text>
</g>
</g></svg>
