<?xml version="1.0" encoding="UTF-8" standalone="no"?>
<!DOCTYPE svg PUBLIC "-//W3C//DTD SVG 1.0//EN"
 "http://www.w3.org/TR/2001/REC-SVG-20010904/DTD/svg10.dtd" [
 <!ATTLIST svg xmlns:xlink CDATA #FIXED "http://www.w3.org/1999/xlink">
]>
<!-- Generated by dot version 1.9 (Fri Jan 31 11:51:16 EST 2003)
     For user: Bill Gates   Title: g    Pages: 1 -->
<svg width="170px" height="268px"
 xmlns="http://www.w3.org/2000/svg" xmlns:xlink="http://www.w3.org/1999/xlink">
<g id="graph0" class="graph" style="font-family:Times-Roman;font-size:18.67;">
<title>g</title>
<g id="graph2" class="cluster"><title>cluster_option</title>
<polygon style="fill:#f4f4f4;stroke:black;" points="10,254 122,254 122,9 10,9 10,254"/>
<text text-anchor="middle" x="89" y="26" style="font-family:Arial;font-size:16.00;fill:#005a9c;">option drive_circle</text>
</g>
<g id="graph3" class="cluster"><title>cluster_states</title>
<polygon style="fill:#f4f4f4;stroke:#f4f4f4;" points="21,243 112,243 112,153 21,153 21,243"/>
</g>
<g id="graph5" class="cluster"><title>cluster_decision_tree</title>
<polygon style="fill:#ffffff;stroke:black;" points="53,94 80,94 80,43 53,43 53,94"/>
<text text-anchor="middle" x="104" y="61" style="font-family:Arial;font-size:16.00;fill:#005a9c;">state done</text>
</g>
<g id="node4" class="node"><title>state_done</title>
<ellipse cx="66" cy="198" rx="29" ry="29" style="fill:none;stroke:black;stroke-dasharray:5,2;"/>
<ellipse cx="66" cy="198" rx="34" ry="34" style="fill:none;stroke:black;stroke-dasharray:5,2;"/>
<text text-anchor="middle" x="66" y="202" style="font-family:Arial;font-size:12.00;fill:#005a9c;">done</text>
</g>
<g id="node7" class="node"><title>start</title>
<ellipse cx="66" cy="81" rx="2" ry="2" style="fill:black;stroke:black;"/>
</g>
<g id="edge7" class="edge"><title>start-&gt;state_done</title>
<path style="fill:none;stroke:black;" d="M66,83C66,93 66,122 66,150"/>
<polygon style="fill:black;stroke:black;" points="70,150 66,163 64,150 70,150"/>
</g>
</g></svg>
