<?xml version="1.0" encoding="UTF-8" standalone="no"?>
<!DOCTYPE svg PUBLIC "-//W3C//DTD SVG 1.0//EN"
 "http://www.w3.org/TR/2001/REC-SVG-20010904/DTD/svg10.dtd" [
 <!ATTLIST svg xmlns:xlink CDATA #FIXED "http://www.w3.org/1999/xlink">
]>
<!-- Generated by dot version 1.9 (Fri Jan 31 11:51:16 EST 2003)
     For user: Bill Gates   Title: g    Pages: 1 -->
<svg width="226px" height="215px"
 xmlns="http://www.w3.org/2000/svg" xmlns:xlink="http://www.w3.org/1999/xlink">
<g id="graph0" class="graph" style="font-family:Times-Roman;font-size:18.67;">
<title>g</title>
<g id="node2" class="node"><title>option_choose_role</title>
<a xlink:href="option.choose_role.html">
<polygon style="fill:#ffffff;stroke:black;" points="128,9 56,9 56,57 128,57 128,9"/>
<text text-anchor="middle" x="92" y="30" style="font-family:Arial;font-size:12.00;fill:#005a9c;">choose</text>
<text text-anchor="middle" x="92" y="44" style="font-family:Arial;font-size:12.00;fill:#005a9c;">role</text>
</a></g>
<g id="node6" class="node"><title>basic_behavior_wait</title>
<a xlink:href="basic-behaviors.my_basic_behaviors.html#wait">
<ellipse cx="36" cy="177" rx="36" ry="24" style="fill:#ffffff;stroke:black;"/>
<text text-anchor="middle" x="36" y="181" style="font-family:Arial;font-size:12.00;fill:#005a9c;">wait</text>
</a></g>
<g id="edge14" class="edge"><title>option_choose_role-&gt;basic_behavior_wait</title>
<path style="fill:none;stroke:#808080;" d="M62,57C54,64 48,72 44,81 34,101 33,125 33,144"/>
<polygon style="fill:#808080;stroke:#808080;" points="36,142 33,153 30,142 36,142"/>
</g>
<g id="node8" class="node"><title>option_drive_circle</title>
<a xlink:href="option.drive_circle.html">
<polygon style="fill:#ffffff;stroke:black;" points="224,81 152,81 152,129 224,129 224,81"/>
<text text-anchor="middle" x="188" y="102" style="font-family:Arial;font-size:12.00;fill:#005a9c;">drive</text>
<text text-anchor="middle" x="188" y="116" style="font-family:Arial;font-size:12.00;fill:#005a9c;">circle</text>
</a></g>
<g id="edge10" class="edge"><title>option_choose_role-&gt;option_drive_circle</title>
<path style="fill:none;stroke:#808080;" d="M124,57C132,62 140,69 146,74"/>
<polygon style="fill:#808080;stroke:#808080;" points="148,72 154,81 145,76 148,72"/>
</g>
<g id="node11" class="node"><title>option_walk_corridor</title>
<a xlink:href="option.walk_corridor.html">
<polygon style="fill:#ffffff;stroke:black;" points="128,81 56,81 56,129 128,129 128,81"/>
<text text-anchor="middle" x="92" y="102" style="font-family:Arial;font-size:12.00;fill:#005a9c;">walk</text>
<text text-anchor="middle" x="92" y="116" style="font-family:Arial;font-size:12.00;fill:#005a9c;">corridor</text>
</a></g>
<g id="edge12" class="edge"><title>option_choose_role-&gt;option_walk_corridor</title>
<path style="fill:none;stroke:#808080;" d="M92,57C92,61 92,66 92,70"/>
<polygon style="fill:#808080;stroke:#808080;" points="94,70 92,81 89,70 94,70"/>
</g>
<g id="node4" class="node"><title>basic_behavior_differential_drive</title>
<a xlink:href="basic-behaviors.my_basic_behaviors.html#differential_drive">
<ellipse cx="170" cy="177" rx="41" ry="24" style="fill:#ffffff;stroke:black;"/>
<text text-anchor="middle" x="170" y="174" style="font-family:Arial;font-size:12.00;fill:#005a9c;">differential</text>
<text text-anchor="middle" x="170" y="188" style="font-family:Arial;font-size:12.00;fill:#005a9c;">drive</text>
</a></g>
<g id="edge16" class="edge"><title>option_drive_circle-&gt;basic_behavior_differential_drive</title>
<path style="fill:none;stroke:#808080;" d="M182,129C181,133 181,138 178,142"/>
<polygon style="fill:#808080;stroke:#808080;" points="181,144 176,153 176,142 181,144"/>
</g>
<g id="edge18" class="edge"><title>option_walk_corridor-&gt;basic_behavior_differential_drive</title>
<path style="fill:none;stroke:#808080;" d="M118,129C125,136 133,142 140,149"/>
<polygon style="fill:#808080;stroke:#808080;" points="142,148 148,157 138,152 142,148"/>
</g>
<g id="edge20" class="edge"><title>option_walk_corridor-&gt;basic_behavior_wait</title>
<path style="fill:none;stroke:#808080;" d="M73,129C69,134 64,141 60,148"/>
<polygon style="fill:#808080;stroke:#808080;" points="62,149 53,156 58,146 62,149"/>
</g>
</g></svg>
