<?xml version="1.0" encoding="UTF-8" standalone="no"?>
<!DOCTYPE svg PUBLIC "-//W3C//DTD SVG 1.0//EN"
 "http://www.w3.org/TR/2001/REC-SVG-20010904/DTD/svg10.dtd" [
 <!ATTLIST svg xmlns:xlink CDATA #FIXED "http://www.w3.org/1999/xlink">
]>
<!-- Generated by dot version 1.9 (Fri Jan 31 11:51:16 EST 2003)
     For user: Bill Gates   Title: g    Pages: 1 -->
<svg width="196px" height="359px"
 xmlns="http://www.w3.org/2000/svg" xmlns:xlink="http://www.w3.org/1999/xlink">
<g id="graph0" class="graph" style="font-family:Times-Roman;font-size:18.67;">
<title>g</title>
<g id="graph2" class="cluster"><title>cluster_option</title>
<polygon style="fill:#f4f4f4;stroke:black;" points="10,345 184,345 184,9 10,9 10,345"/>
<text text-anchor="middle" x="89" y="26" style="font-family:Arial;font-size:16.00;fill:#005a9c;">option drive_circle</text>
</g>
<g id="graph3" class="cluster"><title>cluster_states</title>
<polygon style="fill:#f4f4f4;stroke:#f4f4f4;" points="21,334 173,334 173,254 21,254 21,334"/>
</g>
<g id="graph6" class="cluster"><title>cluster_decision_tree</title>
<polygon style="fill:#ffffff;stroke:black;" points="44,185 137,185 137,44 44,44 44,185"/>
<text text-anchor="middle" x="89" y="61" style="font-family:Arial;font-size:16.00;fill:#005a9c;">state turn</text>
</g>
<g id="node4" class="node"><title>state_turn</title>
<ellipse cx="56" cy="294" rx="24" ry="24" style="fill:none;stroke:black;stroke-dasharray:5,2;"/>
<polyline style="fill:none;stroke:black;stroke-dasharray:5,2;" points="70,277 41,277 "/>
<polyline style="fill:none;stroke:black;stroke-dasharray:5,2;" points="70,312 41,312 "/>
<text text-anchor="middle" x="56" y="298" style="font-family:Arial;font-size:12.00;fill:#005a9c;">turn</text>
</g>
<g id="node6" class="node"><title>state_done</title>
<a xlink:href="option.drive_circle.html#state_done">
<ellipse cx="133" cy="294" rx="29" ry="29" style="fill:#ffffff;stroke:black;"/>
<text text-anchor="middle" x="133" y="298" style="font-family:Arial;font-size:12.00;fill:#005a9c;">done</text>
</a></g>
<g id="node9" class="node"><title>start</title>
<ellipse cx="90" cy="81" rx="2" ry="2" style="fill:black;stroke:black;"/>
</g>
<g id="node11" class="node"><title>_0</title>
<a xlink:href="option.drive_circle.html#state_turn_pseudo-code_0">
<polygon style="fill:#ffffff;stroke:black;" points="126,126 54,126 54,174 126,174 126,126"/>
</a></g>
<g id="edge11" class="edge"><title>start-&gt;_0</title>
<path style="fill:none;stroke:black;" d="M90,84C90,89 90,100 90,112"/>
<polygon style="fill:black;stroke:black;" points="94,113 90,126 88,113 94,113"/>
</g>
<g id="edge9" class="edge"><title>_0-&gt;state_turn</title>
<path style="fill:none;stroke:black;" d="M85,174C80,197 70,233 64,258"/>
<polygon style="fill:black;stroke:black;" points="68,258 61,270 61,257 68,258"/>
<text text-anchor="middle" x="77" y="190" style="font-size:14.67;">1</text>
</g>
<g id="edge13" class="edge"><title>_0-&gt;state_done</title>
<path style="fill:none;stroke:black;" d="M97,174C104,196 114,229 121,254"/>
<polygon style="fill:black;stroke:black;" points="124,253 125,266 117,254 124,253"/>
<text text-anchor="middle" x="96" y="193" style="font-size:14.67;">0</text>
</g>
</g></svg>
