<?xml version="1.0" encoding="UTF-8" standalone="no"?>
<!DOCTYPE svg PUBLIC "-//W3C//DTD SVG 1.0//EN"
 "http://www.w3.org/TR/2001/REC-SVG-20010904/DTD/svg10.dtd" [
 <!ATTLIST svg xmlns:xlink CDATA #FIXED "http://www.w3.org/1999/xlink">
]>
<!-- Generated by dot version 1.9 (Fri Jan 31 11:51:16 EST 2003)
     For user: Bill Gates   Title: g    Pages: 1 -->
<svg width="303px" height="450px"
 xmlns="http://www.w3.org/2000/svg" xmlns:xlink="http://www.w3.org/1999/xlink">
<g id="graph0" class="graph" style="font-family:Times-Roman;font-size:18.67;">
<title>g</title>
<g id="graph2" class="cluster"><title>cluster_option</title>
<polygon style="fill:#f4f4f4;stroke:black;" points="10,221 250,221 250,9 10,9 10,221"/>
<text text-anchor="middle" x="94" y="27" style="font-family:Arial;font-size:16.00;fill:#005a9c;">option choose_role</text>
</g>
<g id="graph8" class="cluster"><title>cluster_option_tree</title>
<polygon style="fill:none;stroke:#ffffff;" points="22,436 228,436 228,280 22,280 22,436"/>
</g>
<g id="node4" class="node"><title>state_get_role</title>
<a xlink:href="option.choose_role.html#state_get_role">
<ellipse cx="177" cy="68" rx="24" ry="24" style="fill:#ffffff;stroke:black;"/>
<polyline style="fill:none;stroke:black;" points="192,51 162,51 "/>
<polyline style="fill:none;stroke:black;" points="192,85 162,85 "/>
<text text-anchor="middle" x="177" y="65" style="font-family:Arial;font-size:12.00;fill:#005a9c;">get</text>
<text text-anchor="middle" x="177" y="79" style="font-family:Arial;font-size:12.00;fill:#005a9c;">role</text>
</a></g>
<g id="edge12" class="edge"><title>state_get_role-&gt;state_get_role</title>
<path style="fill:none;stroke:black;" d="M196,83C213,89 230,85 230,68 230,55 221,49 208,51"/>
<polygon style="fill:black;stroke:black;" points="209,53 196,53 208,47 209,53"/>
</g>
<g id="node7" class="node"><title>state_drive_circle_state</title>
<a xlink:href="option.choose_role.html#state_drive_circle_state">
<ellipse cx="53" cy="171" rx="32" ry="32" style="fill:#ffffff;stroke:black;"/>
<text text-anchor="middle" x="53" y="161" style="font-family:Arial;font-size:12.00;fill:#005a9c;">drive</text>
<text text-anchor="middle" x="53" y="175" style="font-family:Arial;font-size:12.00;fill:#005a9c;">circle</text>
<text text-anchor="middle" x="53" y="188" style="font-family:Arial;font-size:12.00;fill:#005a9c;">state</text>
</a></g>
<g id="edge8" class="edge"><title>state_get_role-&gt;state_drive_circle_state</title>
<path style="fill:none;stroke:black;" d="M156,80C134,93 105,119 82,137"/>
<polygon style="fill:black;stroke:black;" points="85,139 73,145 81,135 85,139"/>
</g>
<g id="node9" class="node"><title>state_walk_corridor_state</title>
<a xlink:href="option.choose_role.html#state_walk_corridor_state">
<ellipse cx="177" cy="171" rx="38" ry="38" style="fill:#ffffff;stroke:black;"/>
<text text-anchor="middle" x="177" y="161" style="font-family:Arial;font-size:12.00;fill:#005a9c;">walk</text>
<text text-anchor="middle" x="177" y="175" style="font-family:Arial;font-size:12.00;fill:#005a9c;">corridor</text>
<text text-anchor="middle" x="177" y="188" style="font-family:Arial;font-size:12.00;fill:#005a9c;">state</text>
</a></g>
<g id="edge10" class="edge"><title>state_get_role-&gt;state_walk_corridor_state</title>
<path style="fill:none;stroke:black;" d="M168,91C166,99 166,109 166,119"/>
<polygon style="fill:black;stroke:black;" points="170,119 166,132 164,119 170,119"/>
</g>
<g id="node25" class="node"><title>basic_behavior_wait</title>
<a xlink:href="basic-behaviors.my_basic_behaviors.html#wait">
<ellipse cx="181" cy="401" rx="36" ry="24" style="fill:#ffffff;stroke:black;"/>
<text text-anchor="middle" x="181" y="405" style="font-family:Arial;font-size:12.00;fill:#005a9c;">wait</text>
</a></g>
<g id="edge33" class="edge"><title>state_get_role-&gt;basic_behavior_wait</title>
<path style="fill:none;stroke:#808080;stroke-dasharray:5,2;" d="M198,79C217,89 242,108 254,131 294,216 266,255 228,339 222,351 214,363 206,372"/>
<polygon style="fill:#808080;stroke:#808080;" points="209,373 200,380 205,371 209,373"/>
</g>
<g id="edge16" class="edge"><title>state_drive_circle_state-&gt;state_get_role</title>
<path style="fill:none;stroke:black;" d="M154,95C133,113 104,139 81,155"/>
<polygon style="fill:black;stroke:black;" points="150,93 162,87 156,99 150,93"/>
</g>
<g id="edge14" class="edge"><title>state_drive_circle_state-&gt;state_drive_circle_state</title>
<path style="fill:none;stroke:black;" d="M77,192C96,199 114,192 114,171 114,153 102,145 88,147"/>
<polygon style="fill:black;stroke:black;" points="90,149 77,149 89,143 90,149"/>
</g>
<g id="node19" class="node"><title>option_drive_circle</title>
<a xlink:href="option.drive_circle.html">
<polygon style="fill:#ffffff;stroke:black;" points="108,291 36,291 36,339 108,339 108,291"/>
<text text-anchor="middle" x="72" y="312" style="font-family:Arial;font-size:12.00;fill:#005a9c;">drive</text>
<text text-anchor="middle" x="72" y="325" style="font-family:Arial;font-size:12.00;fill:#005a9c;">circle</text>
</a></g>
<g id="edge35" class="edge"><title>state_drive_circle_state-&gt;option_drive_circle</title>
<path style="fill:none;stroke:#808080;stroke-dasharray:5,2;" d="M57,203C60,227 64,257 68,281"/>
<polygon style="fill:#808080;stroke:#808080;" points="70,280 69,291 65,280 70,280"/>
</g>
<g id="edge20" class="edge"><title>state_walk_corridor_state-&gt;state_get_role</title>
<path style="fill:none;stroke:black;" d="M188,103C188,112 189,123 188,132"/>
<polygon style="fill:black;stroke:black;" points="185,104 186,91 192,104 185,104"/>
</g>
<g id="edge18" class="edge"><title>state_walk_corridor_state-&gt;state_walk_corridor_state</title>
<path style="fill:none;stroke:black;" d="M206,197C226,204 245,196 245,171 245,151 233,141 218,141"/>
<polygon style="fill:black;stroke:black;" points="220,144 206,144 218,137 220,144"/>
</g>
<g id="node21" class="node"><title>option_walk_corridor</title>
<a xlink:href="option.walk_corridor.html">
<polygon style="fill:#ffffff;stroke:black;" points="213,291 141,291 141,339 213,339 213,291"/>
<text text-anchor="middle" x="177" y="312" style="font-family:Arial;font-size:12.00;fill:#005a9c;">walk</text>
<text text-anchor="middle" x="177" y="325" style="font-family:Arial;font-size:12.00;fill:#005a9c;">corridor</text>
</a></g>
<g id="edge37" class="edge"><title>state_walk_corridor_state-&gt;option_walk_corridor</title>
<path style="fill:none;stroke:#808080;stroke-dasharray:5,2;" d="M177,211C177,232 177,260 177,281"/>
<polygon style="fill:#808080;stroke:#808080;" points="180,280 177,291 174,280 180,280"/>
</g>
<g id="node23" class="node"><title>basic_behavior_differential_drive</title>
<a xlink:href="basic-behaviors.my_basic_behaviors.html#differential_drive">
<ellipse cx="74" cy="401" rx="41" ry="24" style="fill:#ffffff;stroke:black;"/>
<text text-anchor="middle" x="74" y="399" style="font-family:Arial;font-size:12.00;fill:#005a9c;">differential</text>
<text text-anchor="middle" x="74" y="412" style="font-family:Arial;font-size:12.00;fill:#005a9c;">drive</text>
</a></g>
<g id="edge27" class="edge"><title>option_drive_circle-&gt;basic_behavior_differential_drive</title>
<path style="fill:none;stroke:#808080;" d="M73,339C73,348 73,357 73,367"/>
<polygon style="fill:#808080;stroke:#808080;" points="76,367 73,377 70,367 76,367"/>
</g>
<g id="edge29" class="edge"><title>option_walk_corridor-&gt;basic_behavior_differential_drive</title>
<path style="fill:none;stroke:#808080;" d="M149,339C136,349 120,364 106,375"/>
<polygon style="fill:#808080;stroke:#808080;" points="108,376 98,381 105,372 108,376"/>
</g>
<g id="edge31" class="edge"><title>option_walk_corridor-&gt;basic_behavior_wait</title>
<path style="fill:none;stroke:#808080;" d="M178,339C178,348 180,357 180,367"/>
<polygon style="fill:#808080;stroke:#808080;" points="182,367 180,377 177,367 182,367"/>
</g>
</g></svg>
