<?xml version="1.0" encoding="UTF-8" standalone="no"?>
<!DOCTYPE svg PUBLIC "-//W3C//DTD SVG 1.0//EN"
 "http://www.w3.org/TR/2001/REC-SVG-20010904/DTD/svg10.dtd" [
 <!ATTLIST svg xmlns:xlink CDATA #FIXED "http://www.w3.org/1999/xlink">
]>
<!-- Generated by dot version 1.9 (Fri Jan 31 11:51:16 EST 2003)
     For user: Bill Gates   Title: g    Pages: 1 -->
<svg width="170px" height="258px"
 xmlns="http://www.w3.org/2000/svg" xmlns:xlink="http://www.w3.org/1999/xlink">
<g id="graph0" class="graph" style="font-family:Times-Roman;font-size:18.67;">
<title>g</title>
<g id="graph2" class="cluster"><title>cluster_option</title>
<polygon style="fill:#f4f4f4;stroke:black;" points="10,244 112,244 112,9 10,9 10,244"/>
<text text-anchor="middle" x="89" y="27" style="font-family:Arial;font-size:16.00;fill:#005a9c;">option drive_circle</text>
</g>
<g id="graph3" class="cluster"><title>cluster_states</title>
<polygon style="fill:#f4f4f4;stroke:#f4f4f4;" points="21,233 101,233 101,153 21,153 21,233"/>
</g>
<g id="graph5" class="cluster"><title>cluster_decision_tree</title>
<polygon style="fill:#ffffff;stroke:black;" points="48,95 74,95 74,44 48,44 48,95"/>
<text text-anchor="middle" x="98" y="61" style="font-family:Arial;font-size:16.00;fill:#005a9c;">state done</text>
</g>
<g id="node4" class="node"><title>state_done</title>
<ellipse cx="61" cy="193" rx="29" ry="29" style="fill:none;stroke:black;stroke-dasharray:5,2;"/>
<text text-anchor="middle" x="61" y="197" style="font-family:Arial;font-size:12.00;fill:#005a9c;">done</text>
</g>
<g id="node7" class="node"><title>start</title>
<ellipse cx="61" cy="81" rx="2" ry="2" style="fill:black;stroke:black;"/>
</g>
<g id="edge7" class="edge"><title>start-&gt;state_done</title>
<path style="fill:none;stroke:black;" d="M61,84C61,93 61,124 61,151"/>
<polygon style="fill:black;stroke:black;" points="65,151 61,164 58,151 65,151"/>
</g>
</g></svg>
