<?xml version="1.0" encoding="UTF-8" standalone="no"?>
<!DOCTYPE svg PUBLIC "-//W3C//DTD SVG 1.0//EN"
 "http://www.w3.org/TR/2001/REC-SVG-20010904/DTD/svg10.dtd" [
 <!ATTLIST svg xmlns:xlink CDATA #FIXED "http://www.w3.org/1999/xlink">
]>
<!-- Generated by dot version 1.9 (Fri Jan 31 11:51:16 EST 2003)
     For user: Bill Gates   Title: g    Pages: 1 -->
<svg width="196px" height="359px"
 xmlns="http://www.w3.org/2000/svg" xmlns:xlink="http://www.w3.org/1999/xlink">
<g id="graph0" class="graph" style="font-family:Times-Roman;font-size:18.67;">
<title>g</title>
<g id="graph2" class="cluster"><title>cluster_option</title>
<polygon style="fill:#f4f4f4;stroke:black;" points="10,345 184,345 184,9 10,9 10,345"/>
<text text-anchor="middle" x="89" y="26" style="font-family:Arial;font-size:16.00;fill:#005a9c;">option drive_circle</text>
</g>
<g id="graph3" class="cluster"><title>cluster_states</title>
<polygon style="fill:#f4f4f4;stroke:#f4f4f4;" points="21,334 173,334 173,254 21,254 21,334"/>
</g>
<g id="graph6" class="cluster"><title>cluster_decision_tree</title>
<polygon style="fill:#ffffff;stroke:black;" points="45,185 138,185 138,44 45,44 45,185"/>
<text text-anchor="middle" x="96" y="61" style="font-family:Arial;font-size:16.00;fill:#005a9c;">state done</text>
</g>
<g id="node4" class="node"><title>state_done</title>
<ellipse cx="61" cy="294" rx="29" ry="29" style="fill:none;stroke:black;stroke-dasharray:5,2;"/>
<text text-anchor="middle" x="61" y="298" style="font-family:Arial;font-size:12.00;fill:#005a9c;">done</text>
</g>
<g id="node6" class="node"><title>state_turn</title>
<a xlink:href="option.drive_circle.html#state_turn">
<ellipse cx="138" cy="294" rx="24" ry="24" style="fill:#ffffff;stroke:black;"/>
<polyline style="fill:none;stroke:black;" points="153,277 124,277 "/>
<polyline style="fill:none;stroke:black;" points="153,312 124,312 "/>
<text text-anchor="middle" x="138" y="298" style="font-family:Arial;font-size:12.00;fill:#005a9c;">turn</text>
</a></g>
<g id="node9" class="node"><title>start</title>
<ellipse cx="92" cy="81" rx="2" ry="2" style="fill:black;stroke:black;"/>
</g>
<g id="node11" class="node"><title>_0</title>
<a xlink:href="option.drive_circle.html#state_done_pseudo-code_0">
<polygon style="fill:#ffffff;stroke:black;" points="128,126 56,126 56,174 128,174 128,126"/>
</a></g>
<g id="edge11" class="edge"><title>start-&gt;_0</title>
<path style="fill:none;stroke:black;" d="M92,84C92,89 92,100 92,112"/>
<polygon style="fill:black;stroke:black;" points="96,113 92,126 89,113 96,113"/>
</g>
<g id="edge9" class="edge"><title>_0-&gt;state_done</title>
<path style="fill:none;stroke:black;" d="M86,174C82,196 76,228 70,253"/>
<polygon style="fill:black;stroke:black;" points="74,253 68,265 68,252 74,253"/>
<text text-anchor="middle" x="78" y="190" style="font-size:14.67;">1</text>
</g>
<g id="edge13" class="edge"><title>_0-&gt;state_turn</title>
<path style="fill:none;stroke:black;" d="M100,174C108,197 118,234 126,261"/>
<polygon style="fill:black;stroke:black;" points="129,258 130,272 122,261 129,258"/>
<text text-anchor="middle" x="98" y="193" style="font-size:14.67;">0</text>
</g>
</g></svg>
