<?xml version="1.0" encoding="UTF-8" standalone="no"?>
<!DOCTYPE svg PUBLIC "-//W3C//DTD SVG 1.0//EN"
 "http://www.w3.org/TR/2001/REC-SVG-20010904/DTD/svg10.dtd" [
 <!ATTLIST svg xmlns:xlink CDATA #FIXED "http://www.w3.org/1999/xlink">
]>
<!-- Generated by dot version 1.9 (Fri Jan 31 11:51:16 EST 2003)
     For user: Bill Gates   Title: g    Pages: 1 -->
<svg width="260px" height="410px"
 xmlns="http://www.w3.org/2000/svg" xmlns:xlink="http://www.w3.org/1999/xlink">
<g id="graph0" class="graph" style="font-family:Times-Roman;font-size:18.67;">
<title>g</title>
<g id="graph2" class="cluster"><title>cluster_option</title>
<polygon style="fill:#f4f4f4;stroke:black;" points="10,396 248,396 248,9 10,9 10,396"/>
<text text-anchor="middle" x="98" y="27" style="font-family:Arial;font-size:16.00;fill:#005a9c;">option walk_corridor</text>
</g>
<g id="graph3" class="cluster"><title>cluster_states</title>
<polygon style="fill:#f4f4f4;stroke:#f4f4f4;" points="21,385 237,385 237,255 21,255 21,385"/>
</g>
<g id="graph6" class="cluster"><title>cluster_decision_tree</title>
<polygon style="fill:#ffffff;stroke:black;" points="72,185 165,185 165,44 72,44 72,185"/>
<text text-anchor="middle" x="148" y="61" style="font-family:Arial;font-size:16.00;fill:#005a9c;">state move_right</text>
</g>
<g id="node4" class="node"><title>state_decide_movement</title>
<a xlink:href="option.walk_corridor.html#state_decide_movement">
<ellipse cx="85" cy="320" rx="53" ry="53" style="fill:#ffffff;stroke:black;"/>
<polyline style="fill:none;stroke:black;" points="120,280 50,280 "/>
<polyline style="fill:none;stroke:black;" points="120,360 50,360 "/>
<text text-anchor="middle" x="85" y="317" style="font-family:Arial;font-size:12.00;fill:#005a9c;">decide</text>
<text text-anchor="middle" x="85" y="331" style="font-family:Arial;font-size:12.00;fill:#005a9c;">movement</text>
</a></g>
<g id="node6" class="node"><title>state_move_right</title>
<ellipse cx="194" cy="320" rx="32" ry="32" style="fill:none;stroke:black;stroke-dasharray:5,2;"/>
<text text-anchor="middle" x="194" y="317" style="font-family:Arial;font-size:12.00;fill:#005a9c;">move</text>
<text text-anchor="middle" x="194" y="331" style="font-family:Arial;font-size:12.00;fill:#005a9c;">right</text>
</g>
<g id="node9" class="node"><title>start</title>
<ellipse cx="118" cy="81" rx="2" ry="2" style="fill:black;stroke:black;"/>
</g>
<g id="node11" class="node"><title>_0</title>
<a xlink:href="option.walk_corridor.html#state_move_right_pseudo-code_0">
<polygon style="fill:#ffffff;stroke:black;" points="154,127 82,127 82,175 154,175 154,127"/>
</a></g>
<g id="edge11" class="edge"><title>start-&gt;_0</title>
<path style="fill:none;stroke:black;" d="M118,84C118,89 118,100 118,112"/>
<polygon style="fill:black;stroke:black;" points="122,113 118,127 116,113 122,113"/>
</g>
<g id="edge9" class="edge"><title>_0-&gt;state_decide_movement</title>
<path style="fill:none;stroke:black;" d="M113,175C109,196 104,227 98,255"/>
<polygon style="fill:black;stroke:black;" points="102,255 96,267 96,253 102,255"/>
<text text-anchor="middle" x="105" y="191" style="font-size:14.67;">1</text>
</g>
<g id="edge13" class="edge"><title>_0-&gt;state_move_right</title>
<path style="fill:none;stroke:black;" d="M129,175C141,203 161,247 176,280"/>
<polygon style="fill:black;stroke:black;" points="178,277 181,291 172,280 178,277"/>
<text text-anchor="middle" x="129" y="193" style="font-size:14.67;">0</text>
</g>
</g></svg>
